<svg width="16" height="17" viewBox="0 0 16 17" fill="none" xmlns="http://www.w3.org/2000/svg">
<path d="M10.8653 9.675C11.2446 9.38175 11.552 9.00249 11.7631 8.56718C11.9742 8.13186 12.0832 7.6524 12.0816 7.16667C12.0816 6.32681 11.7548 5.52136 11.1731 4.9275C10.5913 4.33363 9.8023 4 8.97959 4C8.15688 4 7.36786 4.33363 6.78612 4.9275C6.20437 5.52136 5.87755 6.32681 5.87755 7.16667C5.87596 7.6524 5.98502 8.13186 6.19612 8.56718C6.40721 9.00249 6.71455 9.38175 7.09388 9.675C6.12901 10.0464 5.28794 10.6911 4.66939 11.5333C4.59145 11.6394 4.55798 11.7728 4.57635 11.904C4.59472 12.0353 4.66343 12.1538 4.76735 12.2333C4.87127 12.3129 5.0019 12.3471 5.13049 12.3283C5.25909 12.3096 5.37512 12.2394 5.45306 12.1333C5.86367 11.5745 6.3961 11.1208 7.0082 10.8084C7.6203 10.496 8.29525 10.3333 8.97959 10.3333C9.66394 10.3333 10.3389 10.496 10.951 10.8084C11.5631 11.1208 12.0955 11.5745 12.5061 12.1333C12.5447 12.1859 12.5931 12.2301 12.6484 12.2636C12.7038 12.297 12.765 12.319 12.8287 12.3283C12.8924 12.3376 12.9572 12.334 13.0195 12.3177C13.0818 12.3014 13.1404 12.2727 13.1918 12.2333C13.2433 12.1939 13.2866 12.1446 13.3194 12.0881C13.3522 12.0316 13.3737 11.969 13.3828 11.904C13.3919 11.839 13.3884 11.7728 13.3724 11.7092C13.3565 11.6456 13.3284 11.5859 13.2898 11.5333C12.6712 10.6911 11.8302 10.0464 10.8653 9.675ZM6.85714 7.16667C6.85714 6.73814 6.98162 6.31924 7.21484 5.96293C7.44806 5.60663 7.77954 5.32892 8.16737 5.16493C8.55519 5.00094 8.98195 4.95803 9.39366 5.04163C9.80538 5.12523 10.1836 5.33159 10.4804 5.6346C10.7772 5.93762 10.9794 6.32368 11.0613 6.74397C11.1432 7.16426 11.1011 7.59991 10.9405 7.99581C10.7798 8.39172 10.5078 8.73011 10.1588 8.96818C9.80973 9.20626 9.39937 9.33333 8.97959 9.33333C8.41735 9.33114 7.87874 9.10216 7.48117 8.69631C7.0836 8.29045 6.85929 7.74063 6.85714 7.16667ZM14.8571 0H3.10204C2.79894 0 2.50825 0.122916 2.29392 0.341709C2.07959 0.560501 1.95918 0.857247 1.95918 1.16667V3H0.489796C0.359894 3 0.235312 3.05268 0.143458 3.14645C0.0516033 3.24021 0 3.36739 0 3.5C0 3.63261 0.0516033 3.75979 0.143458 3.85355C0.235312 3.94732 0.359894 4 0.489796 4H1.95918V6.33333H0.489796C0.359894 6.33333 0.235312 6.38601 0.143458 6.47978C0.0516033 6.57355 0 6.70073 0 6.83333C0 6.96594 0.0516033 7.09312 0.143458 7.18689C0.235312 7.28065 0.359894 7.33333 0.489796 7.33333H1.95918V9.66667H0.489796C0.359894 9.66667 0.235312 9.71935 0.143458 9.81311C0.0516033 9.90688 0 10.0341 0 10.1667C0 10.2993 0.0516033 10.4265 0.143458 10.5202C0.235312 10.614 0.359894 10.6667 0.489796 10.6667H1.95918V13H0.489796C0.359894 13 0.235313 13.0527 0.143458 13.1464C0.0516035 13.2402 0 13.3674 0 13.5C0 13.6326 0.0516035 13.7598 0.143458 13.8536C0.235313 13.9473 0.359894 14 0.489796 14H1.95918V15.8333C1.95918 16.1428 2.07959 16.4395 2.29392 16.6583C2.50825 16.8771 2.79894 17 3.10204 17H14.8571C15.1602 17 15.4509 16.8771 15.6653 16.6583C15.8796 16.4395 16 16.1428 16 15.8333V1.16667C16 0.857247 15.8796 0.560501 15.6653 0.341709C15.4509 0.122916 15.1602 0 14.8571 0ZM15.0204 15.8333C15.0204 15.8775 15.0032 15.9199 14.9726 15.9512C14.942 15.9824 14.9004 16 14.8571 16H3.10204C3.05874 16 3.01721 15.9824 2.98659 15.9512C2.95598 15.9199 2.93878 15.8775 2.93878 15.8333V1.16667C2.93878 1.12246 2.95598 1.08007 2.98659 1.04882C3.01721 1.01756 3.05874 1 3.10204 1H14.8571C14.9004 1 14.942 1.01756 14.9726 1.04882C15.0032 1.08007 15.0204 1.12246 15.0204 1.16667V15.8333Z" fill="#2DA973"/>
</svg>
