<svg width="96" height="96" viewBox="0 0 96 96" fill="none" xmlns="http://www.w3.org/2000/svg">
<circle cx="48" cy="48" r="48" fill="#2DA973" fill-opacity="0.15"/>
<path fill-rule="evenodd" clip-rule="evenodd" d="M55.2641 32H57.5188C58.7362 32 59.7265 32.9904 59.7265 34.2077V56.7548C59.7265 57.9721 58.7362 58.9625 57.5188 58.9625H55.2642C54.2029 58.9625 53.3143 58.2097 53.1039 57.2101C51.7825 56.5491 46.52 54.0496 39.1277 52.2482L42.2716 63.5658H42.4876C42.8768 63.5658 43.1922 63.8812 43.1922 64.2704C43.1922 64.6596 42.8767 64.975 42.4876 64.975H41.7384L41.7357 64.9752L41.7334 64.975H37.6176C36.6295 64.975 35.7548 64.3101 35.4903 63.3582L32.0285 50.8954L31.9559 50.8854L31.9552 50.8854C31.8678 50.8733 31.7804 50.8613 31.6925 50.8496C31.0644 50.767 30.525 50.4256 30.1763 49.9437H28.2077C26.9904 49.9437 26 48.9533 26 47.7359V43.2265C26 42.0092 26.9904 41.0188 28.2077 41.0187H30.1761C30.5249 40.5368 31.0643 40.1955 31.6924 40.1127C42.8782 38.6405 51.3729 34.6184 53.1038 33.7524C53.3143 32.7528 54.2028 32 55.2641 32ZM28.2077 48.5344H29.7579V42.4279H28.2077C27.7674 42.4279 27.4092 42.7861 27.4092 43.2264V47.7359C27.4092 48.1762 27.7674 48.5344 28.2077 48.5344ZM37.6176 63.5658H40.809L37.5643 51.8855C36.2806 51.6025 34.941 51.3439 33.5538 51.1218L36.8483 62.9809C36.9439 63.3253 37.2602 63.5658 37.6176 63.5658ZM57.5187 57.5533C57.9591 57.5533 58.3173 57.1951 58.3173 56.7548V34.2077C58.3173 33.7674 57.9591 33.4092 57.5187 33.4092H55.2641C54.8237 33.4092 54.4655 33.7674 54.4655 34.2077V34.21V34.2126V37.2143C54.4655 37.6035 54.15 37.9189 53.7609 37.9189C53.3717 37.9189 53.0562 37.6034 53.0562 37.2143V35.3421C50.2822 36.6593 42.195 40.1519 31.8763 41.5099C31.4719 41.5632 31.1669 41.9039 31.1669 42.3025V48.66C31.1669 49.0586 31.4718 49.3994 31.8763 49.4525C42.195 50.8107 50.2822 54.3031 53.0562 55.6204V40.2206C53.0562 39.8314 53.3717 39.516 53.7609 39.516C54.15 39.516 54.4655 39.8315 54.4655 40.2206V56.749V56.7539V56.7548C54.4655 57.1951 54.8237 57.5533 55.2641 57.5533H57.5187ZM62.7788 44.7766H70.2945C70.6837 44.7766 70.9992 45.0921 70.9992 45.4812C70.9992 45.8704 70.6836 46.1858 70.2945 46.1858H62.7788C62.3897 46.1858 62.0742 45.8703 62.0742 45.4812C62.0742 45.0921 62.3897 44.7766 62.7788 44.7766ZM68.688 37.6879C68.5347 37.3302 68.1205 37.1646 67.7628 37.3179L67.0112 37.64C66.6536 37.7933 66.4878 38.2075 66.6412 38.5652C66.7557 38.8323 67.0159 38.9923 67.2891 38.9923C67.3817 38.9923 67.4759 38.9739 67.5663 38.9352L68.318 38.6131C68.6756 38.4598 68.8413 38.0456 68.688 37.6879ZM64.7561 38.6063C65.1137 38.4531 65.5279 38.6187 65.6812 38.9764C65.8346 39.334 65.6688 39.7482 65.3112 39.9015L63.0565 40.8679C62.9661 40.9066 62.872 40.925 62.7793 40.925C62.5061 40.925 62.2459 40.7649 62.1314 40.4978C61.978 40.1402 62.1438 39.726 62.5014 39.5727L64.7561 38.6063ZM68.3181 52.3492L67.5643 52.0262C67.2067 51.8728 66.7925 52.0386 66.6392 52.3962C66.4859 52.7538 66.6516 53.168 67.0092 53.3213L67.7629 53.6443C67.8534 53.6831 67.9475 53.7015 68.0402 53.7015C68.3136 53.7015 68.5736 53.5414 68.6881 53.2742C68.8414 52.9167 68.6759 52.5025 68.3181 52.3492ZM63.0565 50.0946L65.3101 51.0604C65.6677 51.2137 65.8335 51.6279 65.6801 51.9856C65.5656 52.2527 65.3056 52.4127 65.0322 52.4127C64.9396 52.4127 64.8454 52.3943 64.755 52.3556L62.5014 51.3897C62.1438 51.2365 61.9781 50.8223 62.1314 50.4646C62.2846 50.107 62.6989 49.9414 63.0565 50.0946Z" fill="#2DA973"/>
</svg>
