<svg width="44" height="51" viewBox="0 0 44 51" fill="none" xmlns="http://www.w3.org/2000/svg">
<path d="M5.86666 3.33337H29.3333C30.1113 3.33337 30.8574 3.64662 31.4075 4.20422C31.9576 4.76181 32.2666 5.51807 32.2666 6.30663V21.2383C33.2728 21.3305 34.2554 21.5178 35.2 21.7884V6.30663C35.2 4.72951 34.5819 3.21699 33.4817 2.1018C32.3815 0.986614 30.8892 0.360107 29.3333 0.360107H5.86666C4.31073 0.360107 2.81852 0.986614 1.71831 2.1018C0.618093 3.21699 0 4.72951 0 6.30663V41.9858C0 43.5629 0.618093 45.0754 1.71831 46.1906C2.81852 47.3058 4.31073 47.9323 5.86666 47.9323H18.3539C17.6068 47.0151 16.9605 46.0182 16.4267 44.959H5.86666C5.0887 44.959 4.34259 44.6458 3.79248 44.0882C3.24238 43.5306 2.93333 42.7743 2.93333 41.9858H15.2739C15.0024 41.0139 14.8208 40.0185 14.7312 39.0125H2.93333V6.30663C2.93333 5.51807 3.24238 4.76181 3.79248 4.20422C4.34259 3.64662 5.0887 3.33337 5.86666 3.33337Z" fill="#2DA973"/>
<path d="M8.80052 6.30664C8.02255 6.30664 7.27645 6.61989 6.72634 7.17749C6.17623 7.73508 5.86719 8.49134 5.86719 9.2799V12.2532C5.86719 13.0417 6.17623 13.798 6.72634 14.3556C7.27645 14.9132 8.02255 15.2264 8.80052 15.2264H26.4005C27.1785 15.2264 27.9246 14.9132 28.4747 14.3556C29.0248 13.798 29.3338 13.0417 29.3338 12.2532V9.2799C29.3338 8.49134 29.0248 7.73508 28.4747 7.17749C27.9246 6.61989 27.1785 6.30664 26.4005 6.30664H8.80052ZM26.4005 9.2799V12.2532H8.80052V9.2799H26.4005Z" fill="#2DA973"/>
<path d="M27.2675 43.5091L27.2675 43.5091L27.2708 43.5124C27.445 43.688 27.648 43.8323 27.871 43.9386L27.871 43.9386L27.8757 43.9408C28.287 44.1318 28.7543 44.1612 29.1862 44.023L29.1862 44.023L29.1921 44.021C29.3719 43.961 29.5424 43.8759 29.6986 43.7683L29.6995 43.7677L36.4313 39.1107C36.7085 38.9247 36.9311 38.6679 37.0772 38.3673C37.2227 38.0728 37.2973 37.748 37.2953 37.4192C37.2933 37.0897 37.2144 36.7651 37.0646 36.4719L37.0646 36.4719L37.0627 36.4682C36.909 36.1733 36.6826 35.9226 36.4047 35.7408C36.404 35.7403 36.4033 35.7399 36.4027 35.7395L29.6725 31.2668C29.4115 31.0864 29.1082 30.9773 28.7922 30.9507C28.4761 30.9242 28.1589 30.9813 27.8717 31.1161C27.6436 31.2186 27.4376 31.3646 27.2647 31.5457C26.9016 31.9233 26.6998 32.4285 26.7004 32.953C26.7004 32.9531 26.7004 32.9531 26.7004 32.9531C26.7004 32.9534 26.7004 32.9536 26.7004 32.9538L26.7004 42.0937C26.6983 42.3549 26.7471 42.6141 26.844 42.8566C26.9411 43.0998 27.085 43.3216 27.2675 43.5091ZM43.4996 37.5259C43.4996 40.944 42.1599 44.2207 39.7775 46.6356C37.3952 49.0503 34.1656 50.4056 30.7996 50.4056C27.4336 50.4056 24.204 49.0503 21.8217 46.6356C19.4393 44.2207 18.0996 40.944 18.0996 37.5259C18.0996 34.1078 19.4393 30.8311 21.8217 28.4162C24.204 26.0015 27.4336 24.6462 30.7996 24.6462C34.1656 24.6462 37.3952 26.0015 39.7775 28.4162C42.1599 30.8311 43.4996 34.1078 43.4996 37.5259Z" stroke="#2DA973"/>
</svg>
