<svg width="11" height="15" viewBox="0 0 11 15" fill="none" xmlns="http://www.w3.org/2000/svg">
<path d="M2.25078 3.6001C2.13143 3.6001 2.01697 3.64751 1.93258 3.7319C1.84819 3.81629 1.80078 3.93075 1.80078 4.0501C1.80078 4.16944 1.84819 4.2839 1.93258 4.3683C2.01697 4.45269 2.13143 4.5001 2.25078 4.5001H8.55078C8.67013 4.5001 8.78459 4.45269 8.86898 4.3683C8.95337 4.2839 9.00078 4.16944 9.00078 4.0501C9.00078 3.93075 8.95337 3.81629 8.86898 3.7319C8.78459 3.64751 8.67013 3.6001 8.55078 3.6001H2.25078Z" fill="#2DA973"/>
<path d="M1.80078 5.85039C1.80078 5.73104 1.84819 5.61658 1.93258 5.53219C2.01697 5.4478 2.13143 5.40039 2.25078 5.40039H8.55078C8.67013 5.40039 8.78459 5.4478 8.86898 5.53219C8.95337 5.61658 9.00078 5.73104 9.00078 5.85039C9.00078 5.96974 8.95337 6.0842 8.86898 6.16859C8.78459 6.25298 8.67013 6.30039 8.55078 6.30039H2.25078C2.13143 6.30039 2.01697 6.25298 1.93258 6.16859C1.84819 6.0842 1.80078 5.96974 1.80078 5.85039Z" fill="#2DA973"/>
<path d="M2.25078 7.2002C2.13143 7.2002 2.01697 7.24761 1.93258 7.332C1.84819 7.41639 1.80078 7.53085 1.80078 7.6502C1.80078 7.76954 1.84819 7.884 1.93258 7.96839C2.01697 8.05279 2.13143 8.1002 2.25078 8.1002H5.85078C5.97013 8.1002 6.08459 8.05279 6.16898 7.96839C6.25337 7.884 6.30078 7.76954 6.30078 7.6502C6.30078 7.53085 6.25337 7.41639 6.16898 7.332C6.08459 7.24761 5.97013 7.2002 5.85078 7.2002H2.25078Z" fill="#2DA973"/>
<path d="M0 1.35C0 0.991958 0.142232 0.64858 0.395406 0.395406C0.64858 0.142232 0.991958 0 1.35 0H9.45C9.80804 0 10.1514 0.142232 10.4046 0.395406C10.6578 0.64858 10.8 0.991958 10.8 1.35V13.05C10.8 13.408 10.6578 13.7514 10.4046 14.0046C10.1514 14.2578 9.80804 14.4 9.45 14.4H1.35C0.991958 14.4 0.64858 14.2578 0.395406 14.0046C0.142232 13.7514 0 13.408 0 13.05V1.35ZM1.35 0.9C1.23065 0.9 1.11619 0.947411 1.0318 1.0318C0.947411 1.11619 0.9 1.23065 0.9 1.35V13.05C0.9 13.1693 0.947411 13.2838 1.0318 13.3682C1.11619 13.4526 1.23065 13.5 1.35 13.5H9.45C9.56935 13.5 9.68381 13.4526 9.7682 13.3682C9.85259 13.2838 9.9 13.1693 9.9 13.05V1.35C9.9 1.23065 9.85259 1.11619 9.7682 1.0318C9.68381 0.947411 9.56935 0.9 9.45 0.9H1.35Z" fill="#2DA973"/>
</svg>
