<svg width="12" height="16" viewBox="0 0 12 16" fill="none" xmlns="http://www.w3.org/2000/svg">
<path d="M11.4973 2.99834H1.93256C1.80503 2.99653 1.67919 2.96891 1.56262 2.91715C1.44606 2.86539 1.34118 2.79055 1.25433 2.69716C1.16747 2.60376 1.10043 2.49374 1.05725 2.37373C1.01406 2.25373 0.995636 2.12622 1.00307 1.99889C1.00245 1.74551 1.09809 1.50135 1.27065 1.3158C1.44321 1.13026 1.67979 1.01718 1.93256 0.999446H11.4973C11.6298 0.999446 11.7569 0.946797 11.8506 0.85308C11.9443 0.759364 11.997 0.632258 11.997 0.499723C11.997 0.367188 11.9443 0.240082 11.8506 0.146365C11.7569 0.0526492 11.6298 0 11.4973 0H1.93256C1.41464 0.0181382 0.924005 0.236716 0.56414 0.609633C0.204275 0.98255 0.00330835 1.48065 0.00362587 1.99889C-0.00120862 2.08044 -0.00120862 2.16221 0.00362587 2.24376C-0.00118887 2.28359 -0.00118887 2.32386 0.00362587 2.36369V13.9922C0.00330835 14.5105 0.204275 15.0086 0.56414 15.3815C0.924005 15.7544 1.41464 15.973 1.93256 15.9911H11.4973C11.6298 15.9911 11.7569 15.9385 11.8506 15.8448C11.9443 15.7511 11.997 15.6239 11.997 15.4914V3.62299V3.57802V3.53304C11.9973 3.39709 11.9458 3.26613 11.8529 3.1668C11.7601 3.06747 11.6329 3.00723 11.4973 2.99834ZM10.9975 14.9917H1.93256C1.67979 14.974 1.44321 14.8609 1.27065 14.6753C1.09809 14.4898 1.00245 14.2456 1.00307 13.9922V3.77291C1.28721 3.92965 1.60819 4.00731 1.93256 3.99778H10.9975V14.9917Z" fill="#2DA973"/>
</svg>
