<svg width="58" height="57" viewBox="0 0 58 57" fill="none" xmlns="http://www.w3.org/2000/svg">
<path d="M57.2882 6.28705C57.6441 5.52371 57.3139 4.61641 56.5505 4.26047L47.7203 0.142896C47.3538 -0.0280564 46.9343 -0.0463564 46.5543 0.0919611C46.1742 0.230279 45.8646 0.513929 45.6937 0.880539L41.1265 10.6752L38.8938 4.11659C38.6833 3.49866 38.1029 3.08302 37.4501 3.08302H7.46658C7.00794 3.08302 6.5737 3.28943 6.2841 3.64498L0.342546 10.9404C0.0107055 11.3479 -0.0879619 11.8974 0.0813893 12.3949L14.8279 55.7128C15.0383 56.3307 15.6187 56.7463 16.2716 56.7463H48.4896C49.332 56.7463 50.0146 56.0636 50.0146 55.2213C50.0146 54.3791 49.332 53.6963 48.4896 53.6963H17.3633L3.6553 13.4289L10.8453 13.4304H10.8456C11.3659 13.4304 11.8504 13.1651 12.1306 12.7267C12.4109 12.2881 12.4481 11.7369 12.2295 11.2646L9.85336 6.13302H36.3582L39.2641 14.669L29.1182 36.4272C29.001 36.6782 28.9574 36.954 28.9848 37.225C28.9842 37.2252 28.9836 37.2253 28.983 37.2254L29.9423 46.6947C29.9966 47.2294 30.3281 47.6961 30.8151 47.9231C31.0202 48.0188 31.2403 48.066 31.4594 48.066C31.7604 48.066 32.0599 47.977 32.317 47.8021L40.1879 42.4503C40.1877 42.4501 40.1877 42.4498 40.1876 42.4496C40.4077 42.3003 40.592 42.0921 40.7125 41.8337L45.2206 32.166L53.2365 55.7128C53.4525 56.3472 54.0451 56.7467 54.6801 56.7467C54.843 56.7467 55.0088 56.7204 55.1716 56.665C55.969 56.3936 56.3952 55.5272 56.1238 54.7299L47.083 28.1722L57.2882 6.28705ZM4.73333 10.3791L7.10813 7.46312L8.45875 10.3798L4.73333 10.3791ZM47.8135 3.55165L53.8795 6.38022L52.4853 9.37029L46.4193 6.54164L47.8135 3.55165ZM32.288 39.5879L36.2536 41.4371L32.7188 43.8406L32.288 39.5879ZM38.5927 39.1626L32.5268 36.334L45.1303 9.30586L51.1962 12.1345L38.5927 39.1626Z" fill="#FFA800"/>
<path d="M44.6453 14.6548L38.4811 27.8738C38.1252 28.6372 38.4554 29.5445 39.2188 29.9004C39.4273 29.9976 39.6465 30.0437 39.8622 30.0437C40.4365 30.0437 40.9866 29.7177 41.2454 29.1628L47.4095 15.9438C47.7655 15.1804 47.4352 14.2731 46.6718 13.9172C45.9087 13.5612 45.0012 13.8915 44.6453 14.6548Z" fill="#FFA800"/>
<path d="M38.5475 31.3415C37.7842 30.9855 36.8768 31.3158 36.5209 32.0792L36.3131 32.5247C35.9573 33.2881 36.2875 34.1954 37.0509 34.5513C37.2594 34.6485 37.4784 34.6946 37.6943 34.6946C38.2687 34.6946 38.8188 34.3684 39.0776 33.8136L39.2853 33.368C39.6412 32.6046 39.3109 31.6973 38.5475 31.3415Z" fill="#FFA800"/>
<path d="M11.6754 16.4978C10.8331 16.4978 10.1504 17.1805 10.1504 18.0228C10.1504 18.8651 10.8331 19.5478 11.6754 19.5478H11.9287C12.771 19.5478 13.4537 18.8651 13.4537 18.0228C13.4537 17.1805 12.771 16.4978 11.9287 16.4978H11.6754Z" fill="#FFA800"/>
<path d="M32.0163 19.5478C32.8586 19.5478 33.5413 18.8651 33.5413 18.0228C33.5413 17.1805 32.8586 16.4978 32.0163 16.4978H16.568C15.7258 16.4978 15.043 17.1805 15.043 18.0228C15.043 18.8651 15.7258 19.5478 16.568 19.5478H32.0163Z" fill="#FFA800"/>
<path d="M30.1367 29.9146C30.1367 29.0724 29.4539 28.3896 28.6117 28.3896H15.7242C14.882 28.3896 14.1992 29.0724 14.1992 29.9146C14.1992 30.7569 14.882 31.4396 15.7242 31.4396H28.6117C29.4539 31.4396 30.1367 30.7569 30.1367 29.9146Z" fill="#FFA800"/>
<path d="M19.7711 40.2812C18.9288 40.2812 18.2461 40.964 18.2461 41.8063C18.2461 42.6485 18.9288 43.3313 19.7711 43.3313H25.94C26.7823 43.3313 27.465 42.6485 27.465 41.8063C27.465 40.964 26.7823 40.2812 25.94 40.2812H19.7711Z" fill="#FFA800"/>
</svg>
