<svg width="35" height="32" viewBox="0 0 35 32" fill="none" xmlns="http://www.w3.org/2000/svg">
<path d="M0.787665 32C0.689096 32 0.588755 31.9813 0.491762 31.9419C0.088626 31.7779 -0.105557 31.3173 0.0580018 30.9132L2.23104 25.5442C3.1665 23.2341 4.82494 20.1815 8.46764 20.0338C8.49846 20.0301 8.52968 20.0282 8.56109 20.0282H11.8111C11.8425 20.0282 11.8737 20.0301 11.9045 20.0338C15.5475 20.1815 17.206 23.2341 18.1413 25.5441L18.4216 26.2366L24.2619 20.826C24.5815 20.5299 25.08 20.5497 25.3751 20.8699C25.6705 21.1902 25.6509 21.6898 25.3313 21.9859L18.6546 28.1714C18.4646 28.3475 18.2004 28.4188 17.9482 28.3622C17.6959 28.3057 17.4871 28.1286 17.3899 27.8883L16.6815 26.1381C15.556 23.3583 14.2575 21.9737 12.4377 21.6717L11.9745 23.8883L12.5941 29.4776C12.6239 29.7461 12.5147 30.0112 12.3046 30.1804L10.9246 31.2919C10.7846 31.4047 10.6106 31.4661 10.4311 31.4661H9.94134C9.76193 31.4661 9.58784 31.4047 9.44801 31.292L8.06785 30.1805C7.85772 30.0113 7.74851 29.7462 7.77825 29.4776L8.39812 23.8883L7.93482 21.6718C6.11509 21.9739 4.81657 23.3585 3.69096 26.1382L1.51792 31.507C1.39375 31.8139 1.09893 32 0.787665 32ZM9.39198 29.221L10.1862 29.8606L10.9804 29.221L10.4725 24.6398H9.89989L9.39198 29.221ZM9.8348 23.0604H10.5378L10.8414 21.6077H9.53112L9.8348 23.0604ZM34.2122 29.4801H22.2377C21.8027 29.4801 21.4499 29.1265 21.4499 28.6904C21.4499 28.2543 21.8027 27.9007 22.2377 27.9007H33.4244V5.16383H2.19992V21.7809C2.19992 22.217 1.8472 22.5706 1.41216 22.5706C0.977121 22.5706 0.624402 22.217 0.624402 21.7809V4.37413C0.624402 3.93802 0.977121 3.58443 1.41216 3.58443H34.2122C34.6473 3.58443 35 3.93802 35 4.37413V28.6904C35 29.1265 34.6473 29.4801 34.2122 29.4801ZM14.0861 25.742C13.6511 25.742 13.2984 25.3885 13.2984 24.9524V24.8449C13.2984 24.4087 13.6511 24.0552 14.0861 24.0552C14.5212 24.0552 14.8739 24.4087 14.8739 24.8449V24.9524C14.8739 25.3885 14.5212 25.742 14.0861 25.742ZM10.1862 18.5815C7.79627 18.5815 5.85178 16.6322 5.85178 14.2364C5.85178 11.8405 7.79617 9.89125 10.1862 9.89125C10.4732 9.89125 10.7538 9.91938 11.0253 9.97298C11.0412 9.97565 11.0569 9.97891 11.0726 9.98266C13.0389 10.3939 14.5206 12.1449 14.5206 14.2364C14.5206 16.6323 12.5762 18.5815 10.1862 18.5815ZM8.77969 11.8578C7.97056 12.3405 7.4273 13.226 7.4273 14.2364C7.4273 15.7614 8.66497 17.0021 10.1862 17.0021C11.7075 17.0021 12.9452 15.7614 12.9452 14.2364C12.9452 13.0822 12.2363 12.0909 11.232 11.6771C10.8726 12.1531 10.4183 12.5511 9.89418 12.8461C9.51467 13.0596 9.03453 12.9243 8.82164 12.5439C8.69914 12.3253 8.69166 12.0732 8.77969 11.8578ZM29.9407 13.3025H25.8977C25.4627 13.3025 25.11 12.949 25.11 12.5128C25.11 12.0767 25.4627 11.7232 25.8977 11.7232H29.9407C30.3757 11.7232 30.7285 12.0767 30.7285 12.5128C30.7285 12.949 30.3757 13.3025 29.9407 13.3025ZM22.2376 13.3025H20.7359C20.3009 13.3025 19.9482 12.949 19.9482 12.5128C19.9482 12.0767 20.3009 11.7232 20.7359 11.7232H22.2376C22.6726 11.7232 23.0254 12.0767 23.0254 12.5128C23.0254 12.949 22.6726 13.3025 22.2376 13.3025ZM29.9407 10.0079H21.8547C21.4197 10.0079 21.067 9.65434 21.067 9.21823C21.067 8.78212 21.4197 8.42853 21.8547 8.42853H29.9407C30.3757 8.42853 30.7285 8.78212 30.7285 9.21823C30.7285 9.65434 30.3757 10.0079 29.9407 10.0079ZM21.8553 1.57939H13.769C13.3339 1.57939 12.9812 1.22581 12.9812 0.789697C12.9812 0.353587 13.3339 0 13.769 0H21.8553C22.2904 0 22.6431 0.353587 22.6431 0.789697C22.6431 1.22581 22.2904 1.57939 21.8553 1.57939Z" fill="#2DA973"/>
</svg>
