<svg width="96" height="96" viewBox="0 0 96 96" fill="none" xmlns="http://www.w3.org/2000/svg">
<circle cx="48" cy="48" r="48" fill="#2DA973" fill-opacity="0.15"/>
<path fill-rule="evenodd" clip-rule="evenodd" d="M61.6053 37.8404H65.0823C66.9488 37.8404 68.4674 39.3555 68.4674 41.2178V61.3938C68.4674 63.2426 66.9488 64.7466 65.0823 64.7466H30.3851C28.5186 64.7466 27 63.2315 27 61.3693V41.2177C27 39.3555 28.5186 37.8404 30.3851 37.8404H30.639V35.7248C30.639 35.2574 31.0179 34.8785 31.4853 34.8785H37.8324C38.2998 34.8785 38.6787 35.2574 38.6787 35.7248V37.8405H45.3986L46.3833 32.6875C46.4595 32.2885 46.8084 32 47.2145 32H59.7135C60.1151 32 60.4614 32.2823 60.5424 32.6756L61.6053 37.8404ZM59.0237 33.6925H47.9144L47.1377 37.757H59.8602L59.0237 33.6925ZM36.986 36.571H32.3316V37.8405H36.986V36.571ZM65.0823 63.0541C66.0314 63.0541 66.7748 62.3249 66.7748 61.3939V41.2177C66.7748 40.2888 66.0155 39.533 65.0823 39.533H30.3851C29.4654 39.533 28.7163 40.2673 28.6946 41.1777H42.8403C43.3077 41.1777 43.6866 41.5565 43.6866 42.0239C43.6866 42.4913 43.3077 42.8702 42.8403 42.8702H28.6925V59.7608H42.8404C43.3078 59.7608 43.6867 60.1397 43.6867 60.6071C43.6867 61.0745 43.3078 61.4533 42.8404 61.4533H28.6968C28.7412 62.3433 29.4803 63.0541 30.3851 63.0541H65.0823ZM43.3682 51.3154C43.3682 45.7254 47.916 41.1776 53.506 41.1776C59.096 41.1776 63.6438 45.7253 63.6438 51.3154C63.6438 56.9055 59.0961 61.4533 53.506 61.4533C47.916 61.4533 43.3682 56.9054 43.3682 51.3154ZM45.0607 51.3154C45.0607 55.9722 48.8493 59.7607 53.506 59.7607C58.1627 59.7607 61.9513 55.9722 61.9514 51.3154C61.9514 46.6587 58.1628 42.8701 53.506 42.8701C48.8493 42.8701 45.0607 46.6587 45.0607 51.3154ZM46.4072 51.3155C46.4072 47.4012 49.5917 44.2168 53.5059 44.2168C57.4201 44.2168 60.6046 47.4013 60.6046 51.3155C60.6046 55.2298 57.4202 58.4142 53.5059 58.4142C49.5916 58.4142 46.4072 55.2298 46.4072 51.3155ZM48.0998 51.3156C48.0998 54.2965 50.5249 56.7217 53.5059 56.7217C56.4868 56.7217 58.9121 54.2965 58.9121 51.3156C58.9121 48.3346 56.4869 45.9094 53.5059 45.9094C50.525 45.9094 48.0998 48.3345 48.0998 51.3156ZM56.1272 47.9345C55.7625 47.6501 55.236 47.7113 54.9462 48.0734C54.6542 48.4384 54.7135 48.9709 55.0784 49.2629C55.0836 49.267 55.0914 49.2733 55.0967 49.2772C55.25 49.394 55.4301 49.4504 55.6089 49.4504C55.864 49.4504 56.1162 49.3356 56.2826 49.117C56.5647 48.7468 56.4947 48.2186 56.1272 47.9345ZM56.0917 51.3154C56.0917 50.848 56.4706 50.4691 56.938 50.4691C57.4054 50.4691 57.7842 50.848 57.7842 51.3154C57.7842 53.6743 55.8652 55.5933 53.5064 55.5933C51.1475 55.5933 49.2285 53.6742 49.2285 51.3154C49.2285 50.848 49.6074 50.4691 50.0748 50.4691C50.5422 50.4691 50.9211 50.848 50.9211 51.3154C50.9211 52.741 52.0809 53.9007 53.5064 53.9007C54.932 53.9007 56.0917 52.7409 56.0917 51.3154ZM63.982 41.1959C63.5154 41.1959 63.1358 41.5755 63.1358 42.0422C63.1358 42.5089 63.5154 42.8885 63.982 42.8885C64.4487 42.8885 64.8283 42.5089 64.8283 42.0422C64.8283 41.5755 64.4487 41.1959 63.982 41.1959ZM45.5889 59.7608H45.5778C45.1104 59.7608 44.7315 60.1397 44.7315 60.6071C44.7315 61.0745 45.1104 61.4534 45.5778 61.4534H45.5889C46.0563 61.4534 46.4351 61.0745 46.4351 60.6071C46.4351 60.1397 46.0563 59.7608 45.5889 59.7608ZM45.5778 41.1776H45.5889C46.0563 41.1776 46.4351 41.5565 46.4351 42.0239C46.4351 42.4913 46.0563 42.8702 45.5889 42.8702H45.5778C45.1104 42.8702 44.7315 42.4913 44.7315 42.0239C44.7315 41.5565 45.1104 41.1776 45.5778 41.1776Z" fill="#2DA973"/>
</svg>
