<svg width="19" height="19" viewBox="0 0 19 19" fill="none" xmlns="http://www.w3.org/2000/svg">
<path fill-rule="evenodd" clip-rule="evenodd" d="M18.6469 1.78797C18.7273 1.82662 18.7982 1.88261 18.8544 1.95192C18.9142 2.02177 18.9572 2.10433 18.9802 2.19333C19.0033 2.28232 19.0057 2.3754 18.9873 2.46547L17.0721 10.9239C17.0414 11.0602 16.9644 11.1816 16.8543 11.2676C16.7441 11.3535 16.6076 11.3986 16.4679 11.3952H7.13946L5.6834 12.6035C5.64907 12.6641 5.63094 12.7325 5.63076 12.8021C5.63058 12.8717 5.64835 12.9402 5.68237 13.0009C5.71638 13.0617 5.76548 13.1126 5.82493 13.1488C5.88438 13.185 5.95216 13.2053 6.02174 13.2077H16.2021C16.3623 13.2077 16.516 13.2713 16.6293 13.3847C16.7426 13.498 16.8063 13.6516 16.8063 13.8119C16.8063 13.9721 16.7426 14.1258 16.6293 14.2391C16.516 14.3524 16.3623 14.416 16.2021 14.416H6.1184C5.85945 14.4289 5.60109 14.3809 5.36399 14.276C5.1269 14.1711 4.91764 14.0121 4.75297 13.8119C4.52147 13.5182 4.39964 13.1529 4.40847 12.7791C4.41729 12.4052 4.55621 12.0462 4.8013 11.7637L4.87985 11.6852L5.87069 10.8756L3.09753 2.11505L0.928544 1.45045C0.774716 1.40318 0.645967 1.29674 0.570619 1.15455C0.495272 1.01235 0.479498 0.846043 0.526768 0.692215C0.574038 0.538387 0.680479 0.409638 0.822677 0.33429C0.893086 0.296982 0.970154 0.273907 1.04948 0.266383C1.12881 0.258859 1.20884 0.267033 1.28501 0.290439L3.76212 1.0517C3.85533 1.08014 3.94028 1.13072 4.00972 1.1991C4.07915 1.26748 4.13101 1.35165 4.16088 1.44441L6.92196 10.1868H15.9846L17.5977 2.93672H6.20299L5.81027 1.72837H18.3892C18.4784 1.72896 18.5664 1.74932 18.6469 1.78797ZM6.92189 18.0411C7.67266 18.0411 8.28129 17.4325 8.28129 16.6817C8.28129 15.9309 7.67266 15.3223 6.92189 15.3223C6.17112 15.3223 5.5625 15.9309 5.5625 16.6817C5.5625 17.4325 6.17112 18.0411 6.92189 18.0411ZM15.1809 18.0411C15.9317 18.0411 16.5403 17.4325 16.5403 16.6817C16.5403 15.9309 15.9317 15.3223 15.1809 15.3223C14.4302 15.3223 13.8215 15.9309 13.8215 16.6817C13.8215 17.4325 14.4302 18.0411 15.1809 18.0411Z" fill="black"/>
</svg>
