<svg width="17" height="16" viewBox="0 0 17 16" fill="none" xmlns="http://www.w3.org/2000/svg">
<path fill-rule="evenodd" clip-rule="evenodd" d="M16.294 2.47767C16.294 3.84605 15.1847 4.95534 13.8163 4.95534C12.4479 4.95534 11.3386 3.84605 11.3386 2.47767C11.3386 1.10929 12.4479 0 13.8163 0C15.1847 0 16.294 1.10929 16.294 2.47767ZM2.67802 0.587607C3.37548 0.550178 4.06252 0.769343 4.60947 1.20374C2.84342 2.00544 1.43039 3.42375 0.635291 5.19279C0.193776 4.64982 -0.031263 3.9627 0.00350209 3.26374C0.0382672 2.56478 0.330378 1.90339 0.823594 1.40691C1.32091 0.916471 1.98055 0.625036 2.67802 0.587607ZM8.16563 3.89625C8.24927 3.97989 8.29626 4.09332 8.29626 4.21161L8.2913 8.11641L11.2942 9.60302C11.4007 9.65493 11.4822 9.747 11.5207 9.85898C11.5593 9.97097 11.5518 10.0937 11.4999 10.2001C11.448 10.3066 11.3559 10.3881 11.2439 10.4266C11.1319 10.4652 11.0092 10.4577 10.9028 10.4058L7.4043 8.67141V4.21161C7.4043 4.09332 7.45128 3.97989 7.53492 3.89625C7.61856 3.81261 7.732 3.76562 7.85028 3.76562C7.96856 3.76562 8.082 3.81261 8.16563 3.89625ZM12.8255 13.2707C13.7331 12.3512 14.3637 11.1949 14.645 9.93383C14.9263 8.6728 14.847 7.35806 14.4161 6.13999C14.0709 6.20105 13.7183 6.2094 13.3706 6.16477C13.8928 7.43593 13.9586 8.84873 13.5568 10.1629C13.155 11.4771 12.3104 12.6116 11.1666 13.3734C10.0229 14.1352 8.65055 14.4774 7.28302 14.3417C5.91549 14.206 4.63718 13.6008 3.66544 12.6291C2.6937 11.6574 2.08853 10.379 1.95284 9.01151C1.81714 7.64398 2.15929 6.27166 2.92112 5.1279C3.68294 3.98415 4.81741 3.13957 6.1316 2.73777C7.4458 2.33598 8.8586 2.40177 10.1298 2.92397C10.111 2.77604 10.101 2.62711 10.1 2.47799C10.102 2.27699 10.1202 2.07647 10.1545 1.8784C8.67413 1.36941 7.06508 1.37608 5.58894 1.89733C4.1128 2.41859 2.85635 3.42378 2.02382 4.74952C1.19129 6.07525 0.831615 7.6436 1.00327 9.19963C1.17492 10.7557 1.8678 12.2079 2.9693 13.3203L1.70568 14.5839C1.61303 14.6785 1.56176 14.8061 1.56315 14.9385C1.56455 15.0709 1.61849 15.1974 1.71312 15.29C1.80774 15.3827 1.9353 15.434 2.06772 15.4326C2.20015 15.4312 2.3266 15.3772 2.41925 15.2826L3.73737 13.9645C4.94277 14.8766 6.41477 15.3669 7.92639 15.3598C9.438 15.3526 10.9053 14.8484 12.102 13.9248L13.4597 15.2826C13.5545 15.3638 13.6765 15.4062 13.8012 15.4014C13.9259 15.3966 14.0442 15.3449 14.1325 15.2566C14.2207 15.1684 14.2724 15.0501 14.2772 14.9253C14.2821 14.8006 14.2396 14.6787 14.1585 14.5839L12.8255 13.2707Z" fill="#2DA973"/>
</svg>
