<svg width="30" height="29" viewBox="0 0 30 29" fill="none" xmlns="http://www.w3.org/2000/svg">
<path d="M0.889495 29C0.653586 29 0.427352 28.9082 0.26054 28.7449C0.0937272 28.5815 0 28.3599 0 28.1289V0H26.9837C27.783 0.00206943 28.549 0.313967 29.1142 0.867503C29.6794 1.42104 29.9979 2.1712 30 2.95402V15.8642C29.9998 16.6476 29.6819 17.3988 29.1163 17.9527C28.5507 18.5067 27.7836 18.818 26.9837 18.8182H26.9686L1.77899 18.6901V28.1289C1.77899 28.3599 1.68529 28.5815 1.51848 28.7449C1.35166 28.9082 1.1254 29 0.889495 29ZM1.77899 16.9479L26.9766 17.0759H26.9837C27.3117 17.0755 27.6261 16.9477 27.8581 16.7205C28.09 16.4934 28.2205 16.1854 28.221 15.8642V2.95402C28.2205 2.63278 28.09 2.32484 27.8581 2.09769C27.6261 1.87054 27.3117 1.74273 26.9837 1.74226H1.77899V16.9479Z" fill="#2DA973"/>
</svg>
