<svg width="54" height="52" viewBox="0 0 54 52" fill="none" xmlns="http://www.w3.org/2000/svg">
<path d="M27.0327 28.7123L27.0308 28.7134L27.0322 28.716L27.0341 28.7149L27.0327 28.7123Z" fill="#808080"/>
<path d="M27.0347 28.7129H27.0327V28.7149H27.0347V28.7129Z" fill="#808080"/>
<path d="M27.0337 28.7128L54.0001 19.7416L35.8645 16.3257L27.0337 28.7109V28.7128Z" fill="#F9C543"/>
<path d="M27.0347 28.7141H27.0327V28.7161H27.0347V28.7141Z" fill="#808080"/>
<path d="M41.413 33.3794L54.0001 19.7437L27.0337 28.7149L41.413 33.3794Z" fill="#FDB53F"/>
<path d="M12.689 33.4844L10.4263 52.0001L27.0295 28.7156L12.689 33.4844Z" fill="#F9C543"/>
<path d="M27.0295 28.7148L10.4263 52L27.088 43.9841L27.0335 28.7148H27.0295Z" fill="#FC9A42"/>
<path d="M35.8644 16.3277L26.9316 0L27.0335 28.7128L35.8644 16.3277Z" fill="#FC9A42"/>
<path d="M27.0337 28.7148L43.8026 51.8803L41.4149 33.3793L27.0337 28.7148Z" fill="#FC9A42"/>
<path d="M27.0337 28.7148L27.0882 43.9841L43.8026 51.8803L27.0357 28.7148H27.0337Z" fill="#FDB53F"/>
<path d="M27.0334 28.7129L26.9315 0.000732422L18.1118 16.3902L27.0327 28.7129H27.0334Z" fill="#F9C543"/>
<path d="M18.112 16.3901L0 19.9377L27.0335 28.7135L18.112 16.3901Z" fill="#FDB53F"/>
<path d="M27.0335 28.7128L0 19.937L12.6878 33.483L27.0283 28.7141L27.0335 28.7128Z" fill="#FC9A42"/>
</svg>
