<svg width="96" height="96" viewBox="0 0 96 96" fill="none" xmlns="http://www.w3.org/2000/svg">
<circle cx="48" cy="48" r="48" fill="#2DA973" fill-opacity="0.15"/>
<path fill-rule="evenodd" clip-rule="evenodd" d="M31.5666 49.1334C31.8794 49.1334 32.1333 48.8795 32.1333 48.5667V33.8334C32.1333 33.0071 33.0071 32.1334 33.8333 32.1334H37.2333C37.5461 32.1334 37.7999 31.8795 37.7999 31.5667C37.7999 31.2539 37.5461 31 37.2334 31H33.8334C32.377 31 31 32.377 31 33.8334V48.5667C31 48.8795 31.2539 49.1334 31.5666 49.1334ZM39.5022 49.1334H42.9022C43.215 49.1334 43.4688 48.8795 43.4688 48.5668C43.4688 48.254 43.215 48.0001 42.9022 48.0001H40.0688V46.8668H40.6355C40.9483 46.8668 41.2021 46.6129 41.2021 46.3001C41.2021 45.9873 40.9483 45.7335 40.6355 45.7335H40.0688V44.6001H40.6355C40.9483 44.6001 41.2021 44.3462 41.2021 44.0334C41.2021 43.7206 40.9483 43.4668 40.6355 43.4668H40.0688V42.3334H42.9022C43.215 42.3334 43.4688 42.0795 43.4688 41.7668C43.4688 41.454 43.215 41.2001 42.9022 41.2001H40.0688V40.0668H40.6355C40.9483 40.0668 41.2021 39.8129 41.2021 39.5001C41.2021 39.1873 40.9483 38.9335 40.6355 38.9335H40.0688V37.8001H40.6355C40.9483 37.8001 41.2021 37.5462 41.2021 37.2334C41.2021 36.9206 40.9483 36.6668 40.6355 36.6668H40.0688V35.5334H42.9022C43.215 35.5334 43.4688 35.2795 43.4688 34.9668C43.4688 34.654 43.215 34.4001 42.9022 34.4001H40.0688V32.1334H48.0022V48.5668C48.0022 48.8795 48.2561 49.1334 48.5688 49.1334C48.8816 49.1334 49.1355 48.8795 49.1355 48.5668V31.5668C49.1355 31.254 48.8816 31.0001 48.5688 31.0001H39.5022C39.1894 31.0001 38.9355 31.254 38.9355 31.5668V48.5668C38.9355 48.8795 39.1894 49.1334 39.5022 49.1334ZM55.9355 38.3667C55.9355 38.0539 56.1894 37.8 56.5022 37.8C56.815 37.8 57.0688 38.0539 57.0688 38.3667V48.5667C57.0688 48.8795 56.815 49.1333 56.5022 49.1333C56.1894 49.1333 55.9355 48.8795 55.9355 48.5667V38.3667ZM53.0996 38.3667V48.5667C53.0996 48.8795 53.3535 49.1333 53.6663 49.1333C53.979 49.1333 54.2329 48.8795 54.2329 48.5667V38.3667C54.2329 38.0539 53.979 37.8 53.6663 37.8C53.3535 37.8 53.0996 38.0539 53.0996 38.3667ZM53.6676 63.8666H54.2342C54.547 63.8666 54.8009 64.1205 54.8009 64.4333C54.8009 64.7461 54.547 64.9999 54.2342 64.9999H33.8342C33.5214 64.9999 33.2676 64.746 33.2676 64.4332C33.2676 64.1204 33.5214 63.8666 33.8342 63.8666H34.4009V63.2999C34.4009 62.9871 34.6548 62.7333 34.9676 62.7333C35.2804 62.7333 35.5342 62.9871 35.5342 63.2999V63.8666H36.6676V63.2999C36.6676 62.9871 36.9214 62.7333 37.2342 62.7333C37.547 62.7333 37.8009 62.9871 37.8009 63.2999V63.8666H38.9343V63.2999C38.9343 62.9871 39.1882 62.7333 39.5009 62.7333C39.8137 62.7333 40.0676 62.9871 40.0676 63.2999V63.8666H41.2009V63.2999C41.2009 62.9871 41.4548 62.7333 41.7676 62.7333C42.0804 62.7333 42.3342 62.9871 42.3342 63.2999V63.8666H43.4676V63.2999C43.4676 62.9871 43.7214 62.7333 44.0342 62.7333C44.347 62.7333 44.6009 62.9871 44.6009 63.2999V63.8666H45.7343V63.2999C45.7343 62.9871 45.9882 62.7333 46.3009 62.7333C46.6137 62.7333 46.8676 62.9871 46.8676 63.2999V63.8666H48.0009V63.2999C48.0009 62.9871 48.2548 62.7333 48.5676 62.7333C48.8804 62.7333 49.1342 62.9871 49.1342 63.2999V63.8666H50.2676V63.2999C50.2676 62.9871 50.5214 62.7333 50.8342 62.7333C51.147 62.7333 51.4009 62.9871 51.4009 63.2999V63.8666H52.5343V63.2999C52.5343 62.9871 52.7882 62.7333 53.1009 62.7333C53.4137 62.7333 53.6676 62.9871 53.6676 63.2999V63.8666ZM50.8343 49.1333C51.1471 49.1333 51.4009 48.8795 51.4009 48.5667V36.2626L53.6676 32.636L55.4787 35.5333H53.1009C52.7882 35.5333 52.5343 35.7872 52.5343 36.1C52.5343 36.4127 52.7882 36.6666 53.1009 36.6666H56.5009C56.7072 36.6666 56.8965 36.555 56.9968 36.3748C57.0965 36.1945 57.0909 35.9741 56.9815 35.7996L54.1482 31.2663C53.9408 30.9348 53.3945 30.9348 53.1871 31.2663L50.3537 35.7996C50.2976 35.8897 50.2676 35.9934 50.2676 36.1V48.5666C50.2676 48.8795 50.5215 49.1333 50.8343 49.1333ZM56.5 31H62.1666C63.623 31 65 32.377 65.0001 33.8334V54.2334C65.0001 55.6897 63.6231 57.0667 62.1667 57.0667H33.8334C32.377 57.0667 31 55.6897 31 54.2334V50.8334C31 50.5206 31.2539 50.2667 31.5666 50.2667H62.1667C62.4795 50.2667 62.7334 50.5206 62.7334 50.8334C62.7334 51.1461 62.4795 51.4 62.1667 51.4H32.1334V54.2333C32.1334 55.0595 33.0071 55.9333 33.8334 55.9333H62.1666C62.9929 55.9333 63.8666 55.0595 63.8666 54.2333V33.8333C63.8666 33.0071 62.9929 32.1333 62.1666 32.1333H56.5C56.1872 32.1333 55.9334 31.8794 55.9334 31.5666C55.9334 31.2539 56.1872 31 56.5 31ZM46.8672 53.6667C46.8672 54.2917 47.3755 54.8 48.0005 54.8C48.6256 54.8 49.1339 54.2918 49.1339 53.6667C49.1339 53.0417 48.6256 52.5333 48.0005 52.5333C47.3755 52.5334 46.8672 53.0417 46.8672 53.6667ZM51.4009 61.0332C51.4009 61.346 51.147 61.5999 50.8342 61.5999C50.5214 61.5999 50.2675 61.346 50.2676 61.0332V58.7666C50.2676 58.4538 50.5214 58.2 50.8342 58.2C51.147 58.2 51.4009 58.4538 51.4009 58.7666V61.0332ZM45.7329 61.0332V58.7666C45.7329 58.4538 45.479 58.2 45.1663 58.2C44.8535 58.2 44.5996 58.4538 44.5996 58.7666V61.0332C44.5996 61.346 44.8535 61.5999 45.1663 61.5999C45.479 61.5999 45.7329 61.346 45.7329 61.0332ZM59.3311 61.6H60.4645C61.7146 61.6 62.7312 62.6166 62.7311 63.8666V64.4333C62.7311 64.746 62.4772 64.9999 62.1645 64.9999H57.6311C57.3183 64.9999 57.0645 64.746 57.0645 64.4333V63.8666C57.0645 62.6166 58.081 61.6 59.3311 61.6ZM59.3312 62.7333C58.7061 62.7333 58.1978 63.2416 58.1978 63.8666H61.5979C61.5979 63.2415 61.0895 62.7333 60.4645 62.7333H59.3312Z" fill="#2DA973"/>
</svg>
