<svg width="24" height="24" viewBox="0 0 24 24" fill="none" xmlns="http://www.w3.org/2000/svg">
<path d="M6.08577 0.0848789C4.65848 0.14979 3.88314 0.387314 3.36743 0.588461C2.6841 0.854519 2.19693 1.17122 1.68407 1.68336C1.17122 2.1955 0.853806 2.68267 0.589176 3.366C0.388029 3.88171 0.150504 4.65706 0.0855946 6.08435C0.0142658 7.62719 0 8.09011 0 11.9989C0 15.9077 0.0156923 16.37 0.0848813 17.9142C0.14979 19.3415 0.388742 20.1154 0.588463 20.6326C0.854519 21.3159 1.17193 21.8031 1.68336 22.3166C2.1955 22.8288 2.68268 23.1469 3.36672 23.4115C3.88243 23.6127 4.65777 23.8502 6.08506 23.9151C7.62861 23.9857 8.09225 24 11.9996 24C15.9085 24 16.3707 23.9843 17.9149 23.9151C19.3422 23.8502 20.1161 23.6113 20.6333 23.4115C21.3166 23.1469 21.8038 22.8288 22.3166 22.3166C22.8295 21.8045 23.1455 21.3166 23.4115 20.6333C23.6127 20.1176 23.8502 19.3422 23.9151 17.9149C23.9857 16.3707 24 15.9085 24 11.9996C24 8.09225 23.9857 7.62861 23.9151 6.08435C23.8502 4.65706 23.6113 3.88171 23.4115 3.366C23.1455 2.68267 22.8288 2.1955 22.3166 1.68336C21.8045 1.17122 21.3166 0.854519 20.6333 0.588461C20.1176 0.387314 19.3422 0.14979 17.9149 0.0848789C16.3721 0.0142651 15.9085 0 11.9996 0C8.09225 0 7.62862 0.0135517 6.08577 0.0848789Z" fill="url(#paint0_radial_2_8344)"/>
<path d="M6.08577 0.0848789C4.65848 0.14979 3.88314 0.387314 3.36743 0.588461C2.6841 0.854519 2.19693 1.17122 1.68407 1.68336C1.17122 2.1955 0.853806 2.68267 0.589176 3.366C0.388029 3.88171 0.150504 4.65706 0.0855946 6.08435C0.0142658 7.62719 0 8.09011 0 11.9989C0 15.9077 0.0156923 16.37 0.0848813 17.9142C0.14979 19.3415 0.388742 20.1154 0.588463 20.6326C0.854519 21.3159 1.17193 21.8031 1.68336 22.3166C2.1955 22.8288 2.68268 23.1469 3.36672 23.4115C3.88243 23.6127 4.65777 23.8502 6.08506 23.9151C7.62861 23.9857 8.09225 24 11.9996 24C15.9085 24 16.3707 23.9843 17.9149 23.9151C19.3422 23.8502 20.1161 23.6113 20.6333 23.4115C21.3166 23.1469 21.8038 22.8288 22.3166 22.3166C22.8295 21.8045 23.1455 21.3166 23.4115 20.6333C23.6127 20.1176 23.8502 19.3422 23.9151 17.9149C23.9857 16.3707 24 15.9085 24 11.9996C24 8.09225 23.9857 7.62861 23.9151 6.08435C23.8502 4.65706 23.6113 3.88171 23.4115 3.366C23.1455 2.68267 22.8288 2.1955 22.3166 1.68336C21.8045 1.17122 21.3166 0.854519 20.6333 0.588461C20.1176 0.387314 19.3422 0.14979 17.9149 0.0848789C16.3721 0.0142651 15.9085 0 11.9996 0C8.09225 0 7.62862 0.0135517 6.08577 0.0848789Z" fill="url(#paint1_radial_2_8344)"/>
<path d="M9.05392 11.9489C9.05392 13.5902 10.3841 14.9212 12.0255 14.9212C13.6668 14.9212 14.9978 13.5902 14.9978 11.9489C14.9978 10.3075 13.6668 8.97663 12.0255 8.97663C10.3841 8.97663 9.05392 10.3075 9.05392 11.9489ZM7.44717 11.9489C7.44717 9.42029 9.49688 7.37059 12.0255 7.37059C14.5541 7.37059 16.6038 9.42029 16.6038 11.9489C16.6038 14.4775 14.5541 16.5272 12.0255 16.5272C9.49688 16.5272 7.44724 14.4776 7.44724 11.9489H7.44717ZM15.7152 16.7087C15.7151 16.4971 15.7778 16.2902 15.8953 16.1142C16.0128 15.9382 16.1798 15.801 16.3753 15.72C16.5707 15.6389 16.7859 15.6177 16.9934 15.6589C17.201 15.7001 17.3917 15.8019 17.5414 15.9514C17.6911 16.101 17.793 16.2916 17.8344 16.4992C17.8758 16.7067 17.8547 16.9218 17.7738 17.1174C17.6929 17.3129 17.5558 17.48 17.3799 17.5977C17.204 17.7153 16.9972 17.7782 16.7855 17.7782H16.7851C16.5015 17.7781 16.2295 17.6654 16.0289 17.4649C15.8282 17.2643 15.7154 16.9924 15.7152 16.7087ZM8.42338 4.69134C7.55409 4.73092 7.08161 4.87572 6.76762 4.99805C6.35134 5.16011 6.05433 5.35312 5.74205 5.66497C5.42977 5.97682 5.23647 6.27355 5.07513 6.68982C4.95273 7.00367 4.80793 7.4763 4.76841 8.34558C4.72519 9.28541 4.71656 9.56773 4.71656 11.9488C4.71656 14.3298 4.7259 14.6113 4.76841 15.5519C4.808 16.4212 4.95387 16.8929 5.07513 17.2077C5.23719 17.624 5.4302 17.921 5.74205 18.2332C6.0539 18.5455 6.35063 18.7388 6.76762 18.9002C7.08147 19.0226 7.55409 19.1674 8.42338 19.2069C9.3632 19.2501 9.64552 19.2587 12.0255 19.2587C14.4054 19.2587 14.688 19.2495 15.6287 19.2067C16.4979 19.1672 16.9696 19.0213 17.2844 18.9C17.7007 18.7387 17.9977 18.545 18.31 18.2331C18.6223 17.9213 18.8148 17.6238 18.9769 17.2075C19.0993 16.8937 19.2441 16.4211 19.2836 15.5518C19.3268 14.6112 19.3355 14.3296 19.3355 11.9486C19.3355 9.56758 19.3268 9.28605 19.2836 8.34544C19.244 7.47615 19.0985 7.00367 18.9769 6.68968C18.8148 6.27341 18.6218 5.97639 18.31 5.66483C17.9981 5.35327 17.7007 5.15997 17.2844 4.99791C16.9706 4.87551 16.4979 4.73071 15.6287 4.69119C14.6888 4.64797 14.4065 4.63934 12.0255 4.63934C9.64445 4.63934 9.36292 4.64797 8.42338 4.69119V4.69134ZM8.34955 20.811C7.40038 20.7678 6.75178 20.6173 6.18536 20.3969C5.59911 20.1692 5.10216 19.8639 4.60593 19.3684C4.10969 18.873 3.80512 18.376 3.57751 17.789C3.3571 17.2222 3.2066 16.574 3.16337 15.6248C3.11943 14.6742 3.10938 14.3702 3.10938 11.9489C3.10938 9.52757 3.11943 9.22364 3.16337 8.27297C3.2066 7.32372 3.3571 6.67556 3.57751 6.10878C3.80512 5.52253 4.10976 5.02458 4.60593 4.52935C5.10209 4.03411 5.5984 3.72918 6.18536 3.50093C6.75285 3.28053 7.40038 3.13002 8.34955 3.0868C9.30072 3.04357 9.60415 3.0328 12.0255 3.0328C14.4468 3.0328 14.7507 3.04286 15.7014 3.0868C16.6507 3.13002 17.2988 3.28053 17.8656 3.50093C18.4519 3.72918 18.9488 4.0339 19.445 4.52935C19.9413 5.0248 20.2452 5.52253 20.4735 6.10878C20.6939 6.67556 20.8451 7.32379 20.8876 8.27297C20.9308 9.22435 20.9409 9.52757 20.9409 11.9489C20.9409 14.3702 20.9308 14.6742 20.8876 15.6248C20.8444 16.5741 20.6939 17.2226 20.4735 17.789C20.2452 18.3753 19.9405 18.8722 19.445 19.3684C18.9496 19.8647 18.4519 20.1692 17.8663 20.3969C17.2988 20.6173 16.6506 20.7685 15.7021 20.811C14.7513 20.8544 14.4475 20.865 12.0266 20.865C9.60558 20.865 9.30108 20.8549 8.34991 20.811" fill="white"/>
<defs>
<radialGradient id="paint0_radial_2_8344" cx="0" cy="0" r="1" gradientUnits="userSpaceOnUse" gradientTransform="translate(1.55326 0.525765) scale(30.4711)">
<stop offset="0.09" stop-color="#FA8F21"/>
<stop offset="0.78" stop-color="#D82D7E"/>
</radialGradient>
<radialGradient id="paint1_radial_2_8344" cx="0" cy="0" r="1" gradientUnits="userSpaceOnUse" gradientTransform="translate(16.624 1.2964) scale(26.8148)">
<stop offset="0.64" stop-color="#8C3AAA" stop-opacity="0"/>
<stop offset="1" stop-color="#8C3AAA"/>
</radialGradient>
</defs>
</svg>
