<svg width="14" height="14" viewBox="0 0 14 14" fill="none" xmlns="http://www.w3.org/2000/svg">
<path d="M11.9 3.00051H9.8V2.3163C9.8 1.77191 9.57875 1.24982 9.18492 0.864874C8.7911 0.479931 8.25695 0.263672 7.7 0.263672H6.3C5.74305 0.263672 5.2089 0.479931 4.81508 0.864874C4.42125 1.24982 4.2 1.77191 4.2 2.3163V3.00051H2.1C1.54305 3.00051 1.0089 3.21677 0.615076 3.60172C0.221249 3.98666 0 4.50875 0 5.05315V11.211C0 11.7554 0.221249 12.2775 0.615076 12.6625C1.0089 13.0474 1.54305 13.2637 2.1 13.2637H11.9C12.457 13.2637 12.9911 13.0474 13.3849 12.6625C13.7788 12.2775 14 11.7554 14 11.211V5.05315C14 4.50875 13.7788 3.98666 13.3849 3.60172C12.9911 3.21677 12.457 3.00051 11.9 3.00051ZM5.6 2.3163C5.6 2.13484 5.67375 1.96081 5.80503 1.83249C5.9363 1.70418 6.11435 1.63209 6.3 1.63209H7.7C7.88565 1.63209 8.0637 1.70418 8.19497 1.83249C8.32625 1.96081 8.4 2.13484 8.4 2.3163V3.00051H5.6V2.3163ZM12.6 11.211C12.6 11.3925 12.5263 11.5665 12.395 11.6949C12.2637 11.8232 12.0857 11.8953 11.9 11.8953H2.1C1.91435 11.8953 1.7363 11.8232 1.60503 11.6949C1.47375 11.5665 1.4 11.3925 1.4 11.211V7.44788C2.08281 7.71261 2.78473 7.92758 3.5 8.09104V8.49472C3.5 8.67619 3.57375 8.85022 3.70503 8.97853C3.8363 9.10685 4.01435 9.17894 4.2 9.17894C4.38565 9.17894 4.5637 9.10685 4.69497 8.97853C4.82625 8.85022 4.9 8.67619 4.9 8.49472V8.35104C5.59604 8.44366 6.29754 8.49166 7 8.49472C7.70246 8.49166 8.40396 8.44366 9.1 8.35104V8.49472C9.1 8.67619 9.17375 8.85022 9.30503 8.97853C9.4363 9.10685 9.61435 9.17894 9.8 9.17894C9.98565 9.17894 10.1637 9.10685 10.295 8.97853C10.4263 8.85022 10.5 8.67619 10.5 8.49472V8.09104C11.2153 7.92758 11.9172 7.71261 12.6 7.44788V11.211ZM12.6 5.94946C11.9192 6.23033 11.2171 6.45908 10.5 6.63367V6.42157C10.5 6.2401 10.4263 6.06607 10.295 5.93776C10.1637 5.80944 9.98565 5.73736 9.8 5.73736C9.61435 5.73736 9.4363 5.80944 9.30503 5.93776C9.17375 6.06607 9.1 6.2401 9.1 6.42157V6.92788C7.70788 7.13317 6.29212 7.13317 4.9 6.92788V6.42157C4.9 6.2401 4.82625 6.06607 4.69497 5.93776C4.5637 5.80944 4.38565 5.73736 4.2 5.73736C4.01435 5.73736 3.8363 5.80944 3.70503 5.93776C3.57375 6.06607 3.5 6.2401 3.5 6.42157V6.64736C2.78293 6.47277 2.08082 6.24401 1.4 5.96315V5.05315C1.4 4.87168 1.47375 4.69765 1.60503 4.56934C1.7363 4.44102 1.91435 4.36894 2.1 4.36894H11.9C12.0857 4.36894 12.2637 4.44102 12.395 4.56934C12.5263 4.69765 12.6 4.87168 12.6 5.05315V5.94946Z" fill="#6F6F6F"/>
</svg>
