<svg width="28" height="28" viewBox="0 0 28 28" fill="none" xmlns="http://www.w3.org/2000/svg">
<path d="M14 28C21.732 28 28 21.732 28 14C28 6.26801 21.732 0 14 0C6.26801 0 0 6.26801 0 14C0 21.732 6.26801 28 14 28Z" fill="#007AB9"/>
<path d="M20.7403 14.8883V19.7037H18.0725V15.2111C18.0725 14.083 17.6873 13.3126 16.7214 13.3126C15.9842 13.3126 15.5463 13.8313 15.3529 14.3335C15.2827 14.5129 15.2646 14.7622 15.2646 15.0139V19.7035H12.5966C12.5966 19.7035 12.6324 12.0944 12.5966 11.3068H15.2648V12.4967C15.2594 12.5061 15.2519 12.5152 15.2471 12.5242H15.2648V12.4967C15.6194 11.9258 16.2516 11.1096 17.6692 11.1096C19.4244 11.1096 20.7403 12.3097 20.7403 14.8883ZM9.80559 7.25928C8.89297 7.25928 8.2959 7.88618 8.2959 8.70985C8.2959 9.51602 8.87566 10.161 9.77058 10.161H9.78789C10.7184 10.161 11.297 9.51602 11.297 8.70985C11.2793 7.88618 10.7184 7.25928 9.80559 7.25928ZM8.45447 19.7037H11.1215V11.3068H8.45447V19.7037Z" fill="#F1F2F2"/>
</svg>
