<svg width="14" height="18" viewBox="0 0 14 18" fill="none" xmlns="http://www.w3.org/2000/svg">
<path d="M6.78125 0C4.9834 0.00212097 3.2598 0.717253 1.98853 1.98852C0.717259 3.25979 0.00212818 4.9834 7.21456e-06 6.78124C-0.00214607 8.25045 0.477765 9.67978 1.36612 10.85C1.36612 10.85 1.55106 11.0935 1.58127 11.1286L6.78125 17.2613L11.9837 11.1256C12.0108 11.0929 12.1964 10.85 12.1964 10.85L12.197 10.8481C13.0849 9.67844 13.5646 8.24977 13.5625 6.78124C13.5604 4.9834 12.8452 3.25979 11.574 1.98852C10.3027 0.717253 8.5791 0.00212097 6.78125 0ZM6.78125 9.24715C6.29354 9.24715 5.81678 9.10253 5.41127 8.83157C5.00575 8.56061 4.68969 8.17549 4.50305 7.72491C4.31641 7.27432 4.26758 6.77851 4.36273 6.30017C4.45787 5.82183 4.69273 5.38245 5.03759 5.03758C5.38245 4.69272 5.82184 4.45787 6.30018 4.36272C6.77851 4.26757 7.27433 4.3164 7.72491 4.50304C8.1755 4.68968 8.56062 5.00574 8.83158 5.41126C9.10253 5.81678 9.24716 6.29353 9.24716 6.78124C9.24634 7.43499 8.98628 8.06173 8.52401 8.524C8.06174 8.98627 7.435 9.24633 6.78125 9.24715Z" fill="#2DA973"/>
</svg>
