<svg width="14" height="18" viewBox="0 0 14 18" fill="none" xmlns="http://www.w3.org/2000/svg">
<path d="M7.21875 0C5.4209 0.00212097 3.6973 0.717253 2.42603 1.98852C1.15476 3.25979 0.439628 4.9834 0.437507 6.78124C0.435354 8.25045 0.915265 9.67978 1.80362 10.85C1.80362 10.85 1.98856 11.0935 2.01877 11.1286L7.21875 17.2613L12.4212 11.1256C12.4483 11.0929 12.6339 10.85 12.6339 10.85L12.6345 10.8481C13.5224 9.67844 14.0021 8.24977 14 6.78124C13.9979 4.9834 13.2827 3.25979 12.0115 1.98852C10.7402 0.717253 9.0166 0.00212097 7.21875 0ZM7.21875 9.24715C6.73104 9.24715 6.25428 9.10253 5.84877 8.83157C5.44325 8.56061 5.12719 8.17549 4.94055 7.72491C4.75391 7.27432 4.70508 6.77851 4.80023 6.30017C4.89537 5.82183 5.13023 5.38245 5.47509 5.03758C5.81995 4.69272 6.25934 4.45787 6.73768 4.36272C7.21601 4.26757 7.71183 4.3164 8.16241 4.50304C8.613 4.68968 8.99812 5.00574 9.26908 5.41126C9.54003 5.81678 9.68466 6.29353 9.68466 6.78124C9.68384 7.43499 9.42378 8.06173 8.96151 8.524C8.49924 8.98627 7.8725 9.24633 7.21875 9.24715Z" fill="#2DA973"/>
</svg>
