<svg width="32" height="50" viewBox="0 0 32 50" fill="none" xmlns="http://www.w3.org/2000/svg">
<path fill-rule="evenodd" clip-rule="evenodd" d="M3.90957 0.37085H27.8883C30.0441 0.37085 31.7979 2.14376 31.7979 4.32307V45.9532C31.7979 48.1325 30.0441 49.9054 27.8883 49.9054H3.90957C1.75378 49.9054 0 48.1325 0 45.9532V4.32307C0 2.14376 1.75378 0.37085 3.90957 0.37085ZM30.234 11.4371H1.56383V38.8392H30.234V11.4371ZM27.8883 1.95174H3.90957C2.61608 1.95174 1.56383 3.01557 1.56383 4.32307V9.85619H30.234V4.32307C30.234 3.01557 29.1818 1.95174 27.8883 1.95174ZM3.90957 48.3245H27.8883C29.1818 48.3245 30.234 47.2607 30.234 45.9532V40.4201H1.56383V45.9532C1.56383 47.2607 2.61608 48.3245 3.90957 48.3245ZM18.5051 6.69471L13.2923 6.69408C12.8605 6.69397 12.5105 6.34017 12.5105 5.90353C12.5106 5.46699 12.8606 5.11319 13.2925 5.11319L18.5053 5.11382C18.9371 5.11392 19.2871 5.46773 19.2871 5.90437C19.287 6.34091 18.937 6.69471 18.5051 6.69471ZM15.899 42.0009C14.6055 42.0009 13.5532 43.0648 13.5532 44.3723C13.5532 45.6798 14.6055 46.7436 15.899 46.7436C17.1925 46.7436 18.2447 45.6798 18.2447 44.3723C18.2447 43.0648 17.1925 42.0009 15.899 42.0009ZM15.899 45.1627C15.4678 45.1627 15.1171 44.8082 15.1171 44.3723C15.1171 43.9364 15.4678 43.5818 15.899 43.5818C16.3302 43.5818 16.6809 43.9364 16.6809 44.3723C16.6809 44.8082 16.3302 45.1627 15.899 45.1627ZM21.8937 29.8808C21.8937 30.3175 21.5436 30.6713 21.1117 30.6713C20.6799 30.6713 20.3298 30.3175 20.3298 29.8808V28.4219C19.9272 28.5281 19.5086 28.5831 19.0846 28.5831C18.2176 28.5831 17.3899 28.3569 16.6809 27.947V34.887H20.3298V33.0426C20.3298 32.606 20.6799 32.2522 21.1117 32.2522C21.5436 32.2522 21.8937 32.606 21.8937 33.0426V35.6774C21.8937 36.1141 21.5436 36.4679 21.1117 36.4679H10.6862C10.2544 36.4679 9.9043 36.1141 9.9043 35.6774V27.246C9.9043 27.245 9.90438 27.2439 9.90446 27.2429C9.90453 27.2419 9.90461 27.2409 9.90461 27.2399C9.90476 27.2329 9.90518 27.2258 9.90559 27.2187C9.90576 27.2159 9.90592 27.2132 9.90607 27.2104C9.91014 27.1182 9.92932 27.0273 9.96445 26.942L13.0046 19.5657L13.0083 19.557L15.1772 14.2949C15.2986 14.0003 15.5833 13.8085 15.899 13.8085C16.2147 13.8085 16.4994 14.0003 16.6207 14.2949L18.7897 19.557L18.7933 19.5657L21.8335 26.942C21.8686 27.0273 21.8877 27.1182 21.8919 27.2103C21.892 27.2132 21.8922 27.2161 21.8924 27.219C21.8928 27.226 21.8933 27.2329 21.8933 27.2399C21.8933 27.2409 21.8934 27.2419 21.8935 27.2429C21.8936 27.2439 21.8937 27.245 21.8937 27.246V29.8808ZM16.8981 19.0781L15.899 16.6541L14.8998 19.0781H16.8981ZM11.4681 28.422V34.887H15.1171V27.9471C14.4079 28.357 13.5803 28.5832 12.7134 28.5832C12.2895 28.5832 11.8708 28.5282 11.4681 28.422ZM15.899 25.4017C16.1539 25.4017 16.3928 25.5273 16.5392 25.7383C17.0881 26.5298 18.0397 27.0024 19.0845 27.0023C19.4333 27.0023 19.7755 26.9474 20.0988 26.8436L17.5497 20.6589H14.2482L11.6991 26.8436C12.0223 26.9474 12.3645 27.0023 12.7134 27.0023C13.7583 27.0023 14.7098 26.5298 15.2587 25.7383C15.4051 25.5273 15.6441 25.4017 15.899 25.4017Z" fill="#2DA973"/>
</svg>
