<svg width="36" height="51" viewBox="0 0 36 51" fill="none" xmlns="http://www.w3.org/2000/svg">
<path fill-rule="evenodd" clip-rule="evenodd" d="M28.7147 11.0513C28.7147 16.9465 23.9093 21.7426 18.0027 21.7426C12.096 21.7426 7.29061 16.9467 7.29061 11.0513C7.29061 5.15616 12.096 0.360107 18.0027 0.360107C23.9093 0.360107 28.7149 5.15616 28.7147 11.0513ZM26.157 11.0513C26.157 6.56381 22.4991 2.9129 18.0027 2.9129C13.5064 2.9129 9.84837 6.56381 9.84837 11.0513C9.84837 15.5389 13.5064 19.1898 18.0027 19.1898C22.4989 19.1898 26.157 15.5389 26.157 11.0513ZM32.3784 31.6351L35.8912 46.1789C36.4737 48.5902 34.6429 50.9056 32.1614 50.9056H3.83855C1.35405 50.9056 -0.472863 48.5867 0.108587 46.1789L3.62143 31.6351C4.03844 29.909 5.57226 28.7034 7.35139 28.7034H28.6484C30.4279 28.7034 31.9615 29.909 32.3784 31.6351ZM2.59528 46.7773C2.4013 47.5809 3.01162 48.3528 3.83855 48.3528H15.425L11.8083 43.5928C11.6024 43.3218 11.5134 42.98 11.5612 42.643L13.174 31.2562H7.35156C6.75829 31.2562 6.24707 31.6579 6.10812 32.2333L2.59528 46.7773ZM15.7574 31.2563L14.1686 42.4741L18 47.5168L21.8316 42.4741L20.2427 31.2563H15.7574ZM20.575 48.3528H32.1614C32.9894 48.3528 33.5985 47.5802 33.4045 46.7775L29.8917 32.2336C29.7528 31.6582 29.2414 31.2563 28.6483 31.2563H22.8258L24.4387 42.6431C24.4864 42.98 24.3975 43.3218 24.1915 43.593L20.575 48.3528Z" fill="#2DA973"/>
</svg>
