<svg width="15" height="20" viewBox="0 0 15 20" fill="none" xmlns="http://www.w3.org/2000/svg">
<path fill-rule="evenodd" clip-rule="evenodd" d="M1.47692 4.43077V17.7231H4.43077V19.2H1.47692C1.08534 19.1996 0.709905 19.0439 0.433013 18.767C0.156121 18.4901 0.000390998 18.1147 0 17.7231V1.47692C0.000390998 1.08534 0.156121 0.709905 0.433013 0.433013C0.709905 0.156121 1.08534 0.000390998 1.47692 0H10.3385C10.73 0.000390998 11.1055 0.156121 11.3824 0.433013C11.6593 0.709905 11.815 1.08534 11.8154 1.47692V11.0769H10.3385V4.43077H1.47692ZM10.3385 1.47692H1.47692V2.95385H10.3385V1.47692ZM6.94903 15.205L8.86164 17.1176L13.7281 12.2511L14.7693 13.2923L8.86164 19.2L5.9078 16.2462L6.94903 15.205Z" fill="#2DA973"/>
</svg>
