<svg width="15" height="14" viewBox="0 0 15 14" fill="none" xmlns="http://www.w3.org/2000/svg">
<path d="M7.44118 0C7.68787 0 7.92445 0.0921874 8.09889 0.256282C8.27333 0.420376 8.37132 0.642936 8.37132 0.875V6.125H13.9522C14.1989 6.125 14.4355 6.21719 14.6099 6.38128C14.7844 6.54538 14.8824 6.76794 14.8824 7C14.8824 7.23206 14.7844 7.45462 14.6099 7.61872C14.4355 7.78281 14.1989 7.875 13.9522 7.875H8.37132V13.125C8.37132 13.3571 8.27333 13.5796 8.09889 13.7437C7.92445 13.9078 7.68787 14 7.44118 14C7.19449 14 6.9579 13.9078 6.78346 13.7437C6.60903 13.5796 6.51103 13.3571 6.51103 13.125V7.875H0.930147C0.683457 7.875 0.44687 7.78281 0.272434 7.61872C0.0979975 7.45462 0 7.23206 0 7C0 6.76794 0.0979975 6.54538 0.272434 6.38128C0.44687 6.21719 0.683457 6.125 0.930147 6.125H6.51103V0.875C6.51103 0.642936 6.60903 0.420376 6.78346 0.256282C6.9579 0.0921874 7.19449 0 7.44118 0Z" fill="#606060"/>
</svg>
