<svg width="27" height="22" viewBox="0 0 27 22" fill="none" xmlns="http://www.w3.org/2000/svg">
<path d="M0.43 21.37V14.16C0.43 11.5 0.896667 9.07333 1.83 6.88C2.76333 4.64 4.39667 2.35333 6.73 0.0199968L10.86 3.38C9.22667 5.01333 8.06 6.55333 7.36 8C6.66 9.44667 6.31 11.01 6.31 12.69L3.86 10.1H11.77V21.37H0.43ZM15.62 21.37V14.16C15.62 11.5 16.0867 9.07333 17.02 6.88C17.9533 4.64 19.5867 2.35333 21.92 0.0199968L26.05 3.38C24.4167 5.01333 23.25 6.55333 22.55 8C21.85 9.44667 21.5 11.01 21.5 12.69L19.05 10.1H26.96V21.37H15.62Z" fill="#2DA973"/>
</svg>
