<svg width="30" height="31" viewBox="0 0 30 31" fill="none" xmlns="http://www.w3.org/2000/svg">
<path d="M29.2817 3.07724L27.7615 1.9486C27.3787 1.66443 26.908 1.54534 26.4354 1.61426C25.963 1.68283 25.5457 1.93037 25.2604 2.31142C25.2602 2.3116 25.2601 2.31187 25.26 2.31204L21.4913 7.39743V2.34708C21.4913 1.98054 21.1929 1.68354 20.8248 1.68354H18.063V0.663541C18.063 0.297001 17.7646 0 17.3965 0C17.0284 0 16.7301 0.297001 16.7301 0.663541V1.68354H14.7374V0.663541C14.7374 0.297001 14.4391 0 14.071 0C13.7029 0 13.4045 0.297001 13.4045 0.663541V1.68354H11.412V0.663541C11.412 0.297001 11.1137 0 10.7456 0C10.3774 0 10.0791 0.297001 10.0791 0.663541V1.68354H8.08676V0.663541C8.08676 0.297001 7.78836 0 7.4203 0C7.05214 0 6.75383 0.297001 6.75383 0.663541V1.68354H4.76138V0.663541C4.76138 0.297001 4.46298 0 4.09492 0C3.72676 0 3.42846 0.297001 3.42846 0.663541V1.68354H0.666462C0.298397 1.68354 0 1.98054 0 2.34708V29.892C0 30.2586 0.298397 30.5556 0.666462 30.5556H20.8249C21.193 30.5556 21.4913 30.2586 21.4913 29.892V16.645L29.6459 5.56791C29.646 5.56773 29.6462 5.56764 29.6463 5.56747C30.2352 4.78086 30.0718 3.66381 29.2817 3.07724ZM20.1583 29.2285H1.33292V3.01062H3.42846V4.03044C3.42846 4.39698 3.72676 4.69398 4.09492 4.69398C4.46298 4.69398 4.76138 4.39698 4.76138 4.03044V3.01062H6.75383V4.03044C6.75383 4.39698 7.05214 4.69398 7.4203 4.69398C7.78836 4.69398 8.08676 4.39698 8.08676 4.03044V3.01062H10.0792V4.03044C10.0792 4.39698 10.3775 4.69398 10.7457 4.69398C11.1138 4.69398 11.4121 4.39698 11.4121 4.03044V3.01062H13.4046V4.03044C13.4046 4.39698 13.703 4.69398 14.071 4.69398C14.4392 4.69398 14.7375 4.39698 14.7375 4.03044V3.01062H16.7301V4.03044C16.7301 4.39698 17.0285 4.69398 17.3966 4.69398C17.7647 4.69398 18.0631 4.39698 18.0631 4.03044V3.01062H20.1584V9.21836L16.6828 13.9665H4.09492C3.72676 13.9665 3.42846 14.2635 3.42846 14.63C3.42846 14.9966 3.72676 15.2936 4.09492 15.2936H15.7113C15.7113 15.2936 11.9221 20.4703 11.9214 20.4714C11.9214 20.4714 11.9216 20.4714 11.9218 20.4714C11.8787 20.5309 11.8444 20.5981 11.8227 20.6724L10.2987 25.863H4.09492C3.72676 25.863 3.42846 26.16 3.42846 26.5265C3.42846 26.8931 3.72676 27.1901 4.09492 27.1901C4.09492 27.1901 10.8053 27.1895 10.8089 27.1895C10.8089 27.1895 10.8088 27.1894 10.8087 27.1894C10.9307 27.1874 11.0525 27.1528 11.1598 27.0838L16.1413 23.8786C16.2098 23.8345 16.2667 23.7796 16.3129 23.7182C16.3145 23.716 20.1584 18.4658 20.1584 18.4658V29.2285H20.1583ZM12.8328 21.9615L14.6121 23.2825L11.9402 25.0017L12.8328 21.9615ZM15.6377 22.3885L13.389 20.7191L23.9003 6.35965L26.1489 8.02903L15.6377 22.3885ZM26.9399 6.96082L24.6912 5.29143L25.4088 4.33328L27.6574 6.00284L26.9399 6.96082ZM28.5776 4.77414C28.5774 4.77431 28.5773 4.77458 28.5772 4.77476L28.4542 4.93887L26.2055 3.26931L26.3284 3.10529C26.3286 3.10511 26.3288 3.10493 26.329 3.10475C26.4015 3.00788 26.5076 2.94489 26.6276 2.92746C26.7479 2.91012 26.8673 2.94037 26.9645 3.01248L28.4848 4.14112C28.6858 4.29019 28.7273 4.57419 28.5776 4.77414Z" fill="#2DA973"/>
<path d="M17.6509 9.44452H4.01709C3.63974 9.44452 3.33398 9.19585 3.33398 8.88896C3.33398 8.58207 3.63974 8.3334 4.01709 8.3334H17.6509C18.0281 8.3334 18.334 8.58207 18.334 8.88896C18.334 9.19585 18.0281 9.44452 17.6509 9.44452Z" fill="#2DA973"/>
<path d="M14.3221 12.2223H4.01251C3.63769 12.2223 3.33398 11.9736 3.33398 11.6667C3.33398 11.3598 3.63769 11.1111 4.01251 11.1111H14.3221C14.6969 11.1111 15.0007 11.3598 15.0007 11.6667C15.0007 11.9736 14.6968 12.2223 14.3221 12.2223Z" fill="#2DA973"/>
<path d="M7.62264 21.6667H4.04533C3.65238 21.6667 3.33398 21.2937 3.33398 20.8333C3.33398 20.373 3.65238 20 4.04533 20H7.62264C8.01549 20 8.33398 20.373 8.33398 20.8333C8.33398 21.2936 8.0154 21.6667 7.62264 21.6667Z" fill="#2DA973"/>
<path d="M5.97988 24.4445H4.02142C3.64168 24.4445 3.33398 24.1958 3.33398 23.8889C3.33398 23.582 3.64168 23.3334 4.02142 23.3334H5.97988C6.35953 23.3334 6.66732 23.582 6.66732 23.8889C6.66732 24.1957 6.35953 24.4445 5.97988 24.4445Z" fill="#2DA973"/>
</svg>
