<svg width="15" height="15" viewBox="0 0 15 15" fill="none" xmlns="http://www.w3.org/2000/svg">
<path d="M6.49791 0C10.0848 0 12.9958 2.91106 12.9958 6.49791C12.9958 10.0848 10.0848 12.9958 6.49791 12.9958C2.91106 12.9958 0 10.0848 0 6.49791C0 2.91106 2.91106 0 6.49791 0ZM6.49791 11.5518C9.28985 11.5518 11.5518 9.28985 11.5518 6.49791C11.5518 3.70525 9.28985 1.44398 6.49791 1.44398C3.70525 1.44398 1.44398 3.70525 1.44398 6.49791C1.44398 9.28985 3.70525 11.5518 6.49791 11.5518ZM12.624 11.6031L14.6665 13.6449L13.6449 14.6665L11.6031 12.624L12.624 11.6031Z" fill="white"/>
</svg>
