<svg width="56" height="56" viewBox="0 0 56 56" fill="none" xmlns="http://www.w3.org/2000/svg">
<path d="M18.6194 31.1007H13.3291C11.5783 31.102 9.84442 30.7562 8.22667 30.0831C6.60891 29.41 5.139 28.4228 3.90102 27.178C2.66304 25.9331 1.68128 24.455 1.0119 22.8283C0.342526 21.2015 -0.00132972 19.458 3.8642e-06 17.6976V8.20694C3.8642e-06 8.02664 0.0712342 7.85372 0.198025 7.72622C0.324816 7.59873 0.496781 7.5271 0.67609 7.5271H15.266C15.4453 7.5271 15.6173 7.59873 15.7441 7.72622C15.8709 7.85372 15.9421 8.02664 15.9421 8.20694C15.9421 8.38725 15.8709 8.56017 15.7441 8.68766C15.6173 8.81516 15.4453 8.88679 15.266 8.88679H1.35218V17.6976C1.35129 19.2794 1.66047 20.8458 2.26205 22.3074C2.86363 23.769 3.74581 25.097 4.85814 26.2155C5.97047 27.334 7.29115 28.2211 8.74465 28.826C10.1982 29.431 11.756 29.7419 13.3291 29.741H18.6194C18.7987 29.741 18.9707 29.8126 19.0975 29.9401C19.2243 30.0676 19.2955 30.2405 19.2955 30.4208C19.2955 30.6011 19.2243 30.774 19.0975 30.9015C18.9707 31.029 18.7987 31.1007 18.6194 31.1007Z" fill="#F4C23F"/>
<path d="M42.6705 31.1007H37.2855C37.1062 31.1007 36.9342 31.029 36.8074 30.9015C36.6806 30.774 36.6094 30.6011 36.6094 30.4208C36.6094 30.2405 36.6806 30.0676 36.8074 29.9401C36.9342 29.8126 37.1062 29.741 37.2855 29.741H42.6705C44.2436 29.7419 45.8014 29.431 47.2549 28.826C48.7084 28.2211 50.0291 27.334 51.1414 26.2155C52.2537 25.097 53.1359 23.769 53.7375 22.3074C54.3391 20.8458 54.6483 19.2794 54.6474 17.6976V8.88679H43.7556C43.5763 8.88679 43.4043 8.81516 43.2775 8.68766C43.1508 8.56017 43.0795 8.38725 43.0795 8.20694C43.0795 8.02664 43.1508 7.85372 43.2775 7.72622C43.4043 7.59873 43.5763 7.5271 43.7556 7.5271H55.3235C55.5028 7.5271 55.6747 7.59873 55.8015 7.72622C55.9283 7.85372 55.9995 8.02664 55.9995 8.20694V17.6976C56.0009 19.458 55.657 21.2015 54.9876 22.8283C54.3183 24.455 53.3365 25.9331 52.0985 27.178C50.8605 28.4228 49.3906 29.41 47.7729 30.0831C46.1551 30.7562 44.4213 31.102 42.6705 31.1007Z" fill="#F4C23F"/>
<path d="M30.7753 32.4807H25.2246V45.1268H30.7753V32.4807Z" fill="#F4C23F"/>
<path d="M19.4536 14.533C19.9877 13.7954 19.3116 12.4085 19.599 11.5213C19.8863 10.6341 21.2419 9.94747 21.2419 9.00249C21.2419 8.05751 19.8728 7.33347 19.599 6.48027C19.3252 5.62707 19.9877 4.2062 19.4536 3.46857C18.9195 2.73094 17.3916 2.94509 16.6479 2.40121C15.9042 1.85734 15.6574 0.337889 14.7751 0.0489562C13.8928 -0.239977 12.8246 0.844373 11.8814 0.844373C10.9383 0.844373 9.83967 -0.229779 8.99118 0.0489562C8.14269 0.327692 7.84859 1.86414 7.11504 2.40121C6.38149 2.93829 4.85015 2.72414 4.30928 3.46857C3.76841 4.21299 4.45126 5.59308 4.1673 6.48027C3.88335 7.36747 2.52441 8.05411 2.52441 9.00249C2.52441 9.95087 3.89011 10.6681 4.1673 11.5213C4.4445 12.3745 3.77855 13.7954 4.30928 14.533C4.54591 14.8593 4.97523 15.0021 5.44173 15.1041L4.19435 17.8948C4.15492 17.9811 4.14026 18.0768 4.15201 18.1711C4.16376 18.2653 4.20145 18.3544 4.26085 18.4282C4.32024 18.5021 4.39897 18.5578 4.48816 18.5891C4.57735 18.6204 4.67345 18.626 4.76564 18.6053L6.53361 18.2246C6.63927 18.2019 6.74938 18.2137 6.84789 18.2583C6.9464 18.303 7.02816 18.3781 7.08124 18.4727L7.97367 20.0567C8.01982 20.1393 8.08791 20.2072 8.17031 20.2531C8.25272 20.2989 8.34618 20.3207 8.44023 20.3161C8.53428 20.3115 8.6252 20.2807 8.7028 20.2271C8.78041 20.1735 8.84164 20.0992 8.87963 20.0125L9.82615 17.8982C10.4955 17.6739 11.229 17.1572 11.8814 17.1572C12.5339 17.1572 13.2674 17.6739 13.9368 17.8982L14.8833 20.0125C14.9218 20.0991 14.9835 20.1732 15.0613 20.2266C15.1392 20.28 15.2303 20.3108 15.3244 20.3153C15.4186 20.3199 15.5122 20.2982 15.5949 20.2525C15.6775 20.2069 15.7459 20.1391 15.7926 20.0567L16.6817 18.4727C16.7349 18.3774 16.8172 18.3019 16.9164 18.2572C17.0156 18.2125 17.1265 18.2011 17.2327 18.2246L19.0006 18.6053C19.0926 18.6246 19.1881 18.6181 19.2766 18.5864C19.3651 18.5547 19.4431 18.4991 19.5022 18.4256C19.5613 18.3522 19.5991 18.2638 19.6114 18.1701C19.6237 18.0764 19.61 17.9812 19.5719 17.8948L18.3212 15.1041C18.7911 15.0021 19.217 14.8593 19.4536 14.533Z" fill="#F4C23F"/>
<path d="M25.2246 34.8432C27.0632 35.1378 28.9367 35.1378 30.7753 34.8432V32.4807H25.2246V34.8432Z" fill="#F4A93F"/>
<path d="M12.2441 4.45093H40.6398C41.4673 4.45093 42.2609 4.78148 42.8461 5.36987C43.4312 5.95826 43.7599 6.75629 43.7599 7.5884V17.6909C43.7599 19.7718 43.3523 21.8323 42.5602 23.7548C41.7682 25.6773 40.6073 27.424 39.1438 28.8953C37.6804 30.3666 35.943 31.5335 34.031 32.3296C32.119 33.1256 30.0698 33.5351 28.0003 33.5346C23.8215 33.5346 19.8139 31.8654 16.859 28.8941C13.9042 25.9228 12.2441 21.8929 12.2441 17.6909V4.45093Z" fill="#F4C23F"/>
<path d="M32.6822 31.0702C23.981 31.0702 16.926 23.976 16.926 15.2264V4.45093H12.2441V17.6909C12.2441 26.4405 19.2991 33.5346 28.0003 33.5346C31.446 33.5403 34.7975 32.4042 37.5365 30.302C35.9687 30.8131 34.3304 31.0723 32.6822 31.0702Z" fill="#F4A93F"/>
<path d="M21.1854 4.45093H12.2441V17.6909C12.2441 18.0784 12.2577 18.4625 12.2847 18.8398L12.5585 18.969L12.7985 19.0811L13.4983 20.6414C13.652 20.9856 13.8976 21.2803 14.2079 21.4925C14.5182 21.7047 14.881 21.8262 15.2559 21.8435C15.6307 21.8608 16.003 21.7731 16.3313 21.5903C16.6596 21.4075 16.931 21.1366 17.1153 20.8079L17.6393 19.8766L18.6805 20.1009C18.8217 20.1307 18.9655 20.1456 19.1098 20.1451C19.4488 20.1452 19.7825 20.0599 20.0802 19.8969C20.378 19.7339 20.6304 19.4984 20.8143 19.212C20.9982 18.9257 21.1078 18.5975 21.1331 18.2575C21.1584 17.9176 21.0985 17.5766 20.9589 17.266L20.32 15.8383C20.4544 15.7157 20.5767 15.5802 20.6851 15.4338C21.3375 14.533 21.2023 13.4758 21.1043 12.7042C21.0772 12.4799 21.0366 12.1467 21.0468 12.004C21.1212 11.885 21.3341 11.6607 21.4795 11.5043C22.0204 10.9332 22.764 10.1446 22.764 9.00247C22.764 7.86034 22.0204 7.06832 21.4795 6.49725C21.3341 6.34089 21.1212 6.11654 21.0468 6.00097C21.0366 5.8548 21.0772 5.52508 21.1043 5.29733C21.1313 5.06958 21.1752 4.75346 21.1854 4.45093Z" fill="#F4A93F"/>
<path d="M37.286 47.9915H18.7139L20.3601 45.6019C20.461 45.4549 20.5958 45.3348 20.753 45.2519C20.9103 45.169 21.0852 45.1258 21.2627 45.126H34.7371C34.9147 45.1258 35.0896 45.169 35.2468 45.2519C35.404 45.3348 35.5389 45.4549 35.6397 45.6019L37.286 47.9915Z" fill="#F4C23F"/>
<path d="M20.4075 47.383L21.9625 45.126H21.2627C21.0852 45.1258 20.9103 45.169 20.753 45.2519C20.5958 45.3348 20.461 45.4549 20.3601 45.6019L18.7139 47.9915H37.286L36.8668 47.383H20.4075Z" fill="#DAA416"/>
<path d="M40.7469 47.9915H15.2517C14.2174 47.9915 13.3789 48.8346 13.3789 49.8746V54.1138C13.3789 55.1538 14.2174 55.997 15.2517 55.997H40.7469C41.7812 55.997 42.6197 55.1538 42.6197 54.1138V49.8746C42.6197 48.8346 41.7812 47.9915 40.7469 47.9915Z" fill="#F4C23F"/>
<path d="M41.5312 54.8036H16.0393C15.5423 54.8036 15.0656 54.6053 14.7139 54.2522C14.3621 53.8991 14.1641 53.4202 14.1632 52.9204V48.6816C14.1637 48.5594 14.1761 48.4376 14.2004 48.3179C13.9469 48.4904 13.7394 48.7229 13.5962 48.995C13.4529 49.267 13.3783 49.5703 13.3789 49.8781V54.1135C13.3789 54.6133 13.5761 55.0926 13.9272 55.4463C14.2783 55.8 14.7547 55.9992 15.2517 56.0001H40.7469C41.181 55.9995 41.6013 55.8473 41.9361 55.5695C42.271 55.2917 42.4994 54.9057 42.5825 54.4772C42.2733 54.6912 41.9065 54.805 41.5312 54.8036Z" fill="#FFD76D"/>
<path d="M38.655 50.5884H16.9729C16.4259 50.5884 15.9824 51.0343 15.9824 51.5843V52.4372C15.9824 52.9873 16.4259 53.4332 16.9729 53.4332H38.655C39.202 53.4332 39.6455 52.9873 39.6455 52.4372V51.5843C39.6455 51.0343 39.202 50.5884 38.655 50.5884Z" fill="#FFD76D"/>
<path d="M28.1084 25.1624C27.9293 25.1615 27.7579 25.0896 27.6313 24.9623C27.5047 24.835 27.4332 24.6626 27.4323 24.4826V11.5315L25.1099 13.3127C24.9662 13.4076 24.792 13.4442 24.6225 13.415C24.453 13.3858 24.3008 13.2931 24.1966 13.1556C24.0924 13.018 24.0439 12.8458 24.061 12.6738C24.078 12.5017 24.1593 12.3425 24.2885 12.2284L27.6993 9.61778C27.7995 9.54122 27.919 9.4943 28.0443 9.48231C28.1696 9.47031 28.2957 9.49372 28.4085 9.54989C28.5212 9.60606 28.6162 9.69276 28.6826 9.80024C28.749 9.90772 28.7843 10.0317 28.7845 10.1583V24.4826C28.7845 24.6629 28.7132 24.8358 28.5864 24.9633C28.4597 25.0908 28.2877 25.1624 28.1084 25.1624Z" fill="#F4A93F"/>
<path d="M32.0052 25.8216H24.1321C23.9528 25.8216 23.7809 25.75 23.6541 25.6225C23.5273 25.495 23.4561 25.3221 23.4561 25.1418C23.4561 24.9615 23.5273 24.7885 23.6541 24.661C23.7809 24.5335 23.9528 24.4619 24.1321 24.4619H32.0052C32.1845 24.4619 32.3564 24.5335 32.4832 24.661C32.61 24.7885 32.6813 24.9615 32.6813 25.1418C32.6813 25.3221 32.61 25.495 32.4832 25.6225C32.3564 25.75 32.1845 25.8216 32.0052 25.8216Z" fill="#F4A93F"/>
<path d="M28.4463 25.1624C28.2672 25.1615 28.0958 25.0896 27.9692 24.9623C27.8426 24.835 27.7711 24.6626 27.7702 24.4826V11.5315L25.4478 13.3127C25.3041 13.4076 25.1299 13.4442 24.9604 13.415C24.7909 13.3858 24.6387 13.2931 24.5345 13.1556C24.4303 13.018 24.3818 12.8458 24.3989 12.6738C24.4159 12.5017 24.4972 12.3425 24.6264 12.2284L28.0372 9.61778C28.1374 9.54122 28.2569 9.4943 28.3822 9.48231C28.5075 9.47031 28.6336 9.49372 28.7463 9.54989C28.8591 9.60606 28.9541 9.69276 29.0205 9.80024C29.0869 9.90772 29.1222 10.0317 29.1223 10.1583V24.4826C29.1223 24.6629 29.0511 24.8358 28.9243 24.9633C28.7975 25.0908 28.6256 25.1624 28.4463 25.1624Z" fill="#F08000"/>
<path d="M32.344 25.8216H24.471C24.2917 25.8216 24.1197 25.75 23.9929 25.6225C23.8662 25.495 23.7949 25.3221 23.7949 25.1418C23.7949 24.9615 23.8662 24.7885 23.9929 24.661C24.1197 24.5335 24.2917 24.4619 24.471 24.4619H32.344C32.5233 24.4619 32.6953 24.5335 32.8221 24.661C32.9489 24.7885 33.0201 24.9615 33.0201 25.1418C33.0201 25.3221 32.9489 25.495 32.8221 25.6225C32.6953 25.75 32.5233 25.8216 32.344 25.8216Z" fill="#F08000"/>
<path d="M21.2419 9.00249C21.2419 9.94747 19.8728 10.6681 19.599 11.5213C19.3252 12.3745 19.9877 13.7954 19.4536 14.533C18.9195 15.2706 17.3916 15.0565 16.6479 15.6004C15.9042 16.1442 15.6574 17.6637 14.7751 17.9526C13.8928 18.2416 12.8246 17.1572 11.8814 17.1572C10.9383 17.1572 9.83967 18.2314 8.99118 17.9526C8.14269 17.6739 7.84859 16.1374 7.11504 15.6004C6.38149 15.0633 4.85015 15.2774 4.30928 14.533C3.76841 13.7886 4.45126 12.4085 4.1673 11.5213C3.88335 10.6341 2.52441 9.94747 2.52441 9.00249C2.52441 8.05751 3.89011 7.33347 4.1673 6.48027C4.4445 5.62707 3.77855 4.2062 4.30928 3.46857C4.84001 2.73094 6.37473 2.94509 7.11504 2.40121C7.85536 1.85734 8.10889 0.337889 8.99118 0.0489562C9.87347 -0.239977 10.9383 0.844373 11.8814 0.844373C12.8246 0.844373 13.9232 -0.229779 14.7751 0.0489562C15.627 0.327692 15.9143 1.86414 16.6479 2.40121C17.3814 2.93829 18.9127 2.72414 19.4536 3.46857C19.9945 4.21299 19.3116 5.59308 19.599 6.48027C19.8863 7.36747 21.2419 8.05411 21.2419 9.00249Z" fill="#F4C23F"/>
<path d="M11.6658 15.7429C10.0423 15.7415 8.48537 15.0937 7.33543 13.9413C6.77782 13.379 6.33258 12.7143 6.02382 11.9834C5.54879 10.8553 5.41985 9.61027 5.65356 8.40799C5.88726 7.20572 6.47295 6.10111 7.33543 5.23595C8.33945 4.22622 9.66132 3.59886 11.0747 3.46127C12.4881 3.32369 13.9051 3.68444 15.0831 4.48176C16.2611 5.27908 17.1268 6.46338 17.532 7.83188C17.9372 9.20039 17.8567 10.668 17.3043 11.9834C16.8359 13.0979 16.0513 14.0489 15.0484 14.7175C14.0456 15.3862 12.869 15.7428 11.6658 15.7429Z" fill="#F4A93F"/>
<path d="M15.547 10.9265C15.5193 10.8651 15.4798 10.8098 15.4308 10.7637C15.3818 10.7177 15.3243 10.6818 15.2615 10.6581C15.1987 10.6345 15.1319 10.6235 15.0649 10.6258C14.9979 10.6281 14.932 10.6436 14.8709 10.6715L11.1153 12.3711C11.0624 12.3935 11.0142 12.4258 10.9733 12.4663C10.9324 12.4258 10.8842 12.3935 10.8313 12.3711L7.07228 10.6715C7.01156 10.6432 6.94584 10.6273 6.87896 10.6249C6.81207 10.6224 6.74536 10.6333 6.68273 10.6571C6.6201 10.6808 6.5628 10.7168 6.51419 10.7631C6.46557 10.8094 6.42661 10.8649 6.39958 10.9265L4.65527 14.8322C5.33474 15.2265 6.49761 15.1483 7.11623 15.6004C7.82612 16.1205 8.09318 17.5685 8.90786 17.922L10.9733 13.3025L12.8055 17.3986C13.4917 17.6977 14.1915 18.143 14.7763 17.9526C15.6586 17.6637 15.9155 16.1375 16.6491 15.6004C16.8755 15.4372 17.1696 15.342 17.4874 15.2707L15.547 10.9265Z" fill="#F4A93F"/>
<path d="M7.97404 20.0568L7.0816 18.4727C7.02852 18.3781 6.94677 18.303 6.84826 18.2584C6.74975 18.2137 6.63964 18.2019 6.53397 18.2246L4.76601 18.6053C4.67382 18.626 4.57771 18.6204 4.48852 18.5891C4.39933 18.5579 4.32061 18.5021 4.26121 18.4283C4.20182 18.3544 4.16413 18.2654 4.15238 18.1711C4.14063 18.0769 4.15529 17.9812 4.19471 17.8949L7.30809 10.9265C7.33582 10.8651 7.37531 10.8098 7.4243 10.7638C7.47329 10.7177 7.53082 10.6818 7.59361 10.6582C7.65639 10.6345 7.7232 10.6235 7.79022 10.6258C7.85723 10.6281 7.92314 10.6436 7.98418 10.6715L11.7398 12.3712C11.8629 12.4269 11.959 12.5293 12.0071 12.6561C12.0553 12.7828 12.0515 12.9236 11.9968 13.0476L8.87999 20.0126C8.84201 20.0992 8.78078 20.1735 8.70317 20.2271C8.62556 20.2808 8.53464 20.3116 8.44059 20.3162C8.34655 20.3208 8.25308 20.2989 8.17068 20.2531C8.08828 20.2073 8.02019 20.1393 7.97404 20.0568Z" fill="#DE3226"/>
<path d="M8.3966 12.2046C8.45461 12.0785 8.48734 11.9422 8.49291 11.8034C8.49849 11.6645 8.47679 11.526 8.42907 11.3956C8.38135 11.2652 8.30854 11.1456 8.2148 11.0435C8.12106 10.9414 8.00823 10.8589 7.88277 10.8007L7.58529 10.6614C7.4624 10.7106 7.36311 10.8056 7.30809 10.9265L4.19471 17.8949C4.15529 17.9812 4.14063 18.0769 4.15238 18.1711C4.16413 18.2654 4.20182 18.3545 4.26121 18.4283C4.32061 18.5022 4.39933 18.5579 4.48852 18.5892C4.57771 18.6204 4.67382 18.626 4.76601 18.6053L5.52999 18.4388L8.3966 12.2046Z" fill="#B11A31"/>
<path d="M15.7927 20.0568L16.6818 18.4727C16.735 18.3774 16.8173 18.3019 16.9166 18.2572C17.0158 18.2125 17.1266 18.2011 17.2328 18.2246L19.0008 18.6053C19.0927 18.6247 19.1882 18.6181 19.2767 18.5864C19.3652 18.5547 19.4433 18.4991 19.5023 18.4257C19.5614 18.3522 19.5992 18.2638 19.6115 18.1701C19.6238 18.0765 19.6101 17.9812 19.572 17.8949L16.4553 10.9265C16.4283 10.8649 16.3893 10.8094 16.3407 10.7631C16.2921 10.7168 16.2348 10.6808 16.1721 10.6571C16.1095 10.6333 16.0428 10.6224 15.9759 10.6249C15.909 10.6273 15.8433 10.6432 15.7826 10.6715L12.0235 12.3711C11.9005 12.4268 11.8044 12.5293 11.7562 12.656C11.7081 12.7828 11.7118 12.9236 11.7666 13.0476L14.8834 20.0126C14.9219 20.0991 14.9836 20.1732 15.0614 20.2266C15.1393 20.2801 15.2304 20.3108 15.3246 20.3154C15.4187 20.3199 15.5123 20.2982 15.595 20.2525C15.6776 20.2069 15.7461 20.1391 15.7927 20.0568Z" fill="#DE3226"/>
<path d="M13.001 12.7383L11.8584 13.2516L14.8839 20.0126C14.9224 20.0991 14.9841 20.1732 15.0619 20.2267C15.1398 20.2801 15.2309 20.3108 15.3251 20.3154C15.4192 20.32 15.5128 20.2982 15.5955 20.2526C15.6781 20.2069 15.7466 20.1392 15.7932 20.0568L16.0434 19.6081L13.001 12.7383Z" fill="#B11A31"/>
<path d="M11.7402 12.3712L7.98454 10.6715C7.9235 10.6436 7.85759 10.6281 7.79058 10.6258C7.72356 10.6235 7.65675 10.6345 7.59397 10.6582C7.53118 10.6818 7.47365 10.7177 7.42466 10.7638C7.37567 10.8098 7.33618 10.8651 7.30845 10.9265L6.45996 12.8301C6.70905 13.2327 7.00278 13.6056 7.33549 13.9416C8.2786 14.8854 9.50002 15.4971 10.8173 15.6854L11.9971 13.0476C12.0519 12.9236 12.0556 12.7828 12.0075 12.6561C11.9594 12.5293 11.8633 12.4269 11.7402 12.3712Z" fill="#B11A31"/>
<path d="M17.1111 12.3983L16.4553 10.9265C16.4283 10.8649 16.3893 10.8094 16.3407 10.7631C16.2921 10.7168 16.2348 10.6808 16.1721 10.6571C16.1095 10.6333 16.0428 10.6224 15.9759 10.6249C15.909 10.6273 15.8433 10.6432 15.7826 10.6715L12.0235 12.3711C11.9005 12.4268 11.8044 12.5293 11.7562 12.656C11.7081 12.7828 11.7118 12.9236 11.7666 13.0476L12.916 15.614C13.304 15.5318 13.6832 15.4122 14.0484 15.2571C15.3713 14.6951 16.4555 13.6831 17.1111 12.3983Z" fill="#B11A31"/>
<path d="M11.8812 14.6112C15.0457 14.6112 17.611 12.0316 17.611 8.84956C17.611 5.66748 15.0457 3.08789 11.8812 3.08789C8.7167 3.08789 6.15137 5.66748 6.15137 8.84956C6.15137 12.0316 8.7167 14.6112 11.8812 14.6112Z" fill="#F8881B"/>
<path d="M11.8818 13.9382C14.6766 13.9382 16.9423 11.66 16.9423 8.84961C16.9423 6.03924 14.6766 3.76099 11.8818 3.76099C9.08696 3.76099 6.82129 6.03924 6.82129 8.84961C6.82129 11.66 9.08696 13.9382 11.8818 13.9382Z" fill="#F08000"/>
<path d="M11.8813 13.3671C14.3625 13.3671 16.3739 11.3446 16.3739 8.84959C16.3739 6.35461 14.3625 4.33203 11.8813 4.33203C9.40008 4.33203 7.38867 6.35461 7.38867 8.84959C7.38867 11.3446 9.40008 13.3671 11.8813 13.3671Z" fill="#F4C23F"/>
<path d="M15.8844 2.1905C16.0103 2.11629 16.1196 2.01678 16.2055 1.89817C15.7627 1.22513 15.4517 0.269945 14.7756 0.0489957C14.5424 -0.0257871 14.2888 -0.00199247 14.0285 0.0761896C13.9494 0.230226 13.9098 0.401716 13.9133 0.575066C13.9168 0.748416 13.9634 0.918125 14.0488 1.06876L14.4781 1.81319C14.6152 2.05036 14.8402 2.22324 15.1037 2.29396C15.3673 2.36468 15.648 2.32748 15.8844 2.1905Z" fill="#FAD564"/>
<path d="M11.9056 1.18417C11.9748 1.0773 12.024 0.958659 12.0509 0.834047C11.9948 0.840833 11.9384 0.844238 11.8819 0.844245C11.0537 0.844245 10.1072 0.0182355 9.30939 0.00463867C9.28286 0.198596 9.31167 0.396142 9.39246 0.574274C9.47325 0.752406 9.60271 0.903793 9.76575 1.01081L10.4824 1.4833C10.5954 1.55768 10.7218 1.60894 10.8545 1.63416C10.9871 1.65939 11.1235 1.65807 11.2556 1.63029C11.3878 1.60251 11.5132 1.54881 11.6247 1.47226C11.7363 1.39571 11.8317 1.29782 11.9056 1.18417Z" fill="#FAD564"/>
<path d="M19.5993 6.48008C19.312 5.59289 19.9881 4.20601 19.454 3.46838C19.1159 3.00269 18.3959 2.91431 17.7198 2.78174C17.5404 3.08834 17.4612 3.44383 17.4933 3.7981L17.6285 5.18498C17.6493 5.4042 17.7128 5.61716 17.8155 5.81168C17.9181 6.00619 18.0579 6.17846 18.2268 6.31863C18.3957 6.45879 18.5904 6.56411 18.7998 6.62856C19.0092 6.69301 19.2292 6.71533 19.4472 6.69424C19.5224 6.68731 19.597 6.67481 19.6703 6.65684C19.6423 6.59978 19.6186 6.54069 19.5993 6.48008Z" fill="#FAD564"/>
<path d="M10.1429 17.1416C10.3191 16.7581 10.1528 16.3036 9.77151 16.1265C9.39018 15.9493 8.93822 16.1165 8.76202 16.5L8.18322 17.7595C8.00702 18.143 8.17331 18.5975 8.55464 18.7746C8.93597 18.9518 9.38793 18.7846 9.56413 18.4012L10.1429 17.1416Z" fill="#F44533"/>
<path d="M18.0906 14.5717C17.9198 14.1858 17.4702 14.0122 17.0864 14.184C16.7027 14.3558 16.5301 14.8079 16.701 15.1938L17.2622 16.4614C17.4331 16.8473 17.8827 17.0209 18.2664 16.849C18.6502 16.6772 18.8228 16.2251 18.6519 15.8393L18.0906 14.5717Z" fill="#F44533"/>
<path d="M33.2298 45.126H24.7348C24.3408 45.126 24.0215 45.4469 24.0215 45.8427C24.0215 46.2385 24.3408 46.5594 24.7348 46.5594H33.2298C33.6237 46.5594 33.9431 46.2385 33.9431 45.8427C33.9431 45.4469 33.6237 45.126 33.2298 45.126Z" fill="#DAA416"/>
<path d="M39.2976 47.9915H24.6705C24.1869 47.9915 23.7949 48.3856 23.7949 48.8719V48.8725C23.7949 49.3588 24.1869 49.7529 24.6705 49.7529H39.2976C39.7811 49.7529 40.1731 49.3588 40.1731 48.8725V48.8719C40.1731 48.3856 39.7811 47.9915 39.2976 47.9915Z" fill="#F4C23F"/>
<path d="M37.2622 4.45093H29.4534C28.6879 4.45093 28.0674 5.07421 28.0674 5.84308C28.0674 6.61194 28.6879 7.23522 29.4534 7.23522H37.2622C38.0276 7.23522 38.6481 6.61194 38.6481 5.84308C38.6481 5.07421 38.0276 4.45093 37.2622 4.45093Z" fill="#FAD564"/>
<path d="M43.7015 11.2766C43.7015 10.3435 42.9501 9.58716 42.0231 9.58716C41.0962 9.58716 40.3447 10.3435 40.3447 11.2766V17.3024C40.3447 18.2354 41.0962 18.9918 42.0231 18.9918C42.9501 18.9918 43.7015 18.2354 43.7015 17.3024V11.2766Z" fill="#FAD564"/>
<path d="M30.775 38.9018C30.775 38.4043 30.374 38.001 29.8792 38.001C29.3845 38.001 28.9834 38.4043 28.9834 38.9018V41.732C28.9834 42.2295 29.3845 42.6328 29.8792 42.6328C30.374 42.6328 30.775 42.2295 30.775 41.732V38.9018Z" fill="#FAD564"/>
</svg>
