<svg width="16" height="15" viewBox="0 0 16 15" fill="none" xmlns="http://www.w3.org/2000/svg">
<path d="M15.0449 5.38501C14.9975 5.24618 14.9102 5.12419 14.7939 5.0341C14.6775 4.94402 14.5372 4.88978 14.3902 4.87808L10.0903 4.53837L8.22955 0.443167C8.17029 0.311269 8.07391 0.19924 7.95202 0.120603C7.83014 0.0419653 7.68798 7.93987e-05 7.54268 1.12769e-07C7.39739 -7.91732e-05 7.25517 0.0416516 7.1332 0.120156C7.01124 0.198661 6.91473 0.310584 6.85532 0.442417L4.99461 4.53837L0.694676 4.87808C0.550205 4.88946 0.412091 4.94198 0.296855 5.02936C0.18162 5.11674 0.0941439 5.23527 0.044892 5.37079C-0.0043598 5.5063 -0.0133018 5.65305 0.019136 5.79349C0.0515738 5.93392 0.124018 6.06209 0.227801 6.16266L3.40542 9.2425L2.2816 14.0809C2.24748 14.2273 2.25841 14.3806 2.31299 14.5208C2.36757 14.661 2.46327 14.7816 2.58767 14.8671C2.71208 14.9525 2.85944 14.9988 3.01064 15C3.16184 15.0011 3.30989 14.9571 3.43559 14.8735L7.54244 12.1514L11.6493 14.8735C11.7778 14.9583 11.9293 15.002 12.0834 14.9986C12.2376 14.9953 12.3871 14.945 12.5117 14.8547C12.6363 14.7644 12.7301 14.6383 12.7805 14.4934C12.8308 14.3484 12.8354 14.1917 12.7935 14.0441L11.414 9.24475L14.8352 6.18366C15.0592 5.98268 15.1414 5.66922 15.0449 5.38501Z" fill="#F1B310"/>
</svg>
