<svg width="12" height="12" viewBox="0 0 12 12" fill="none" xmlns="http://www.w3.org/2000/svg">
<path d="M11.9683 4.30813C11.9306 4.19707 11.8612 4.09947 11.7686 4.0274C11.6761 3.95533 11.5644 3.91194 11.4475 3.90259L8.02686 3.63082L6.54665 0.354656C6.49951 0.249137 6.42284 0.159514 6.32588 0.0966044C6.22892 0.0336943 6.11583 0.000185589 6.00025 0.000122161C5.88466 5.87318e-05 5.77153 0.0334433 5.6745 0.0962469C5.57748 0.159051 5.5007 0.248589 5.45345 0.354056L3.97324 3.63082L0.552619 3.90259C0.437692 3.91169 0.32782 3.9537 0.23615 4.02361C0.14448 4.09351 0.074892 4.18834 0.0357119 4.29675C-0.00346825 4.40516 -0.0105816 4.52256 0.0152228 4.63491C0.0410272 4.74726 0.0986568 4.84979 0.181217 4.93025L2.70903 7.39412L1.81503 11.2648C1.78788 11.382 1.79658 11.5046 1.84 11.6167C1.88342 11.7289 1.95955 11.8254 2.05851 11.8938C2.15747 11.9621 2.2747 11.9992 2.39498 12.0001C2.51526 12.001 2.63304 11.9658 2.73303 11.8989L6.00005 9.72121L9.26707 11.8989C9.36927 11.9668 9.4898 12.0017 9.61245 11.999C9.7351 11.9963 9.85398 11.9561 9.95311 11.8839C10.0522 11.8116 10.1269 11.7107 10.1669 11.5948C10.207 11.4789 10.2106 11.3535 10.1773 11.2354L9.07987 7.39592L11.8015 4.94705C11.9797 4.78627 12.0451 4.5355 11.9683 4.30813Z" fill="#F1B310"/>
</svg>
