<svg width="16" height="15" viewBox="0 0 16 15" fill="none" xmlns="http://www.w3.org/2000/svg">
<path d="M15.2421 5.38501C15.1947 5.24618 15.1075 5.12419 14.9911 5.0341C14.8748 4.94402 14.7345 4.88978 14.5875 4.87808L10.2875 4.53837L8.42682 0.443167C8.36756 0.311269 8.27117 0.19924 8.14929 0.120603C8.02741 0.0419653 7.88524 7.93987e-05 7.73995 1.12769e-07C7.59465 -7.91732e-05 7.45244 0.0416516 7.33047 0.120156C7.2085 0.198661 7.11199 0.310584 7.05259 0.442417L5.19187 4.53837L0.891942 4.87808C0.747471 4.88946 0.609356 4.94198 0.494121 5.02936C0.378886 5.11674 0.291409 5.23527 0.242158 5.37079C0.192906 5.5063 0.183964 5.65305 0.216402 5.79349C0.248839 5.93392 0.321283 6.06209 0.425067 6.16266L3.60269 9.2425L2.47887 14.0809C2.44474 14.2273 2.45568 14.3806 2.51026 14.5208C2.56484 14.661 2.66054 14.7816 2.78494 14.8671C2.90934 14.9525 3.05671 14.9988 3.2079 15C3.3591 15.0011 3.50716 14.9571 3.63286 14.8735L7.7397 12.1514L11.8465 14.8735C11.975 14.9583 12.1265 15.002 12.2807 14.9986C12.4349 14.9953 12.5843 14.945 12.7089 14.8547C12.8336 14.7644 12.9274 14.6383 12.9777 14.4934C13.0281 14.3484 13.0326 14.1917 12.9907 14.0441L11.6112 9.24475L15.0325 6.18366C15.2565 5.98268 15.3387 5.66922 15.2421 5.38501Z" fill="#FFEBB5"/>
</svg>
