<svg width="13" height="15" viewBox="0 0 13 15" fill="none" xmlns="http://www.w3.org/2000/svg">
<path fill-rule="evenodd" clip-rule="evenodd" d="M6.29963 1.88867C4.96931 1.88867 3.89087 2.96711 3.89087 4.29743C3.89087 5.62775 4.96931 6.70619 6.29963 6.70619C7.62995 6.70619 8.70839 5.62775 8.70839 4.29743C8.70839 2.96711 7.62995 1.88867 6.29963 1.88867ZM2.64087 4.29743C2.64087 2.27675 4.27895 0.638672 6.29963 0.638672C8.32031 0.638672 9.95839 2.27675 9.95839 4.29743C9.95839 6.31811 8.32031 7.95619 6.29963 7.95619C4.27895 7.95619 2.64087 6.31811 2.64087 4.29743ZM3.05267 9.16969C2.76125 9.16958 2.47984 9.27593 2.26134 9.46875C2.04286 9.66156 1.90234 9.92753 1.86618 10.2167L1.86618 10.2167L1.62955 12.1122L1.62954 12.1122C1.61919 12.195 1.62658 12.2791 1.6512 12.3588C1.67582 12.4386 1.71713 12.5122 1.77236 12.5747C1.8276 12.6373 1.89552 12.6874 1.97159 12.7217C2.04767 12.756 2.13018 12.7737 2.21363 12.7737H2.21377H9.3334C9.67858 12.7737 9.9584 13.0535 9.9584 13.3987C9.9584 13.7439 9.67858 14.0237 9.3334 14.0237H2.2139H2.21377C1.9531 14.0238 1.6954 13.9684 1.45777 13.8612C1.2201 13.754 1.00794 13.5975 0.835372 13.4021C0.662804 13.2067 0.533776 12.9768 0.45685 12.7277C0.379932 12.4786 0.356865 12.216 0.38918 11.9573L0.389189 11.9572L0.625813 10.0618L0.625823 10.0617C0.699748 9.47017 0.987244 8.92598 1.43425 8.53151C1.8812 8.13709 2.45682 7.91952 3.05291 7.91969H3.05298H3.05315H3.26588C3.61105 7.91969 3.89088 8.19952 3.89088 8.54469C3.89088 8.88987 3.61105 9.16969 3.26588 9.16969H3.05291H3.05267ZM12.823 8.97216C13.0591 8.72034 13.0464 8.32481 12.7945 8.08873C12.5427 7.85265 12.1472 7.86541 11.9111 8.11723L10.0521 10.1002L9.14179 9.29107C8.8838 9.06174 8.48876 9.08498 8.25943 9.34297C8.03011 9.60096 8.05335 9.99601 8.31134 10.2253L9.67653 11.4388C9.92969 11.6639 10.316 11.6463 10.5477 11.3992L12.823 8.97216Z" fill="#6F6F6F"/>
</svg>
