<svg width="17" height="16" viewBox="0 0 17 16" fill="none" xmlns="http://www.w3.org/2000/svg">
<path d="M15.8227 2.53205L8.32266 0.032048C8.19435 -0.0106827 8.05565 -0.0106827 7.92734 0.032048L0.439375 2.52814L0.438594 2.52838L0.427344 2.53213C0.425156 2.53291 0.423203 2.53408 0.421094 2.53486C0.393995 2.54416 0.367577 2.55533 0.342031 2.5683C0.339141 2.56986 0.336094 2.57103 0.333203 2.57259C0.30794 2.58609 0.283638 2.60131 0.260469 2.61814C0.255387 2.62182 0.25036 2.62557 0.245391 2.62939C0.222817 2.64645 0.201414 2.66501 0.181328 2.68494C0.179531 2.68689 0.177891 2.68892 0.176094 2.6908C0.157597 2.71007 0.140348 2.7305 0.124453 2.75197C0.121172 2.75634 0.117813 2.76056 0.114688 2.76502C0.0982854 2.7882 0.0834852 2.81247 0.0703906 2.83767C0.0683593 2.84158 0.0666406 2.84549 0.0646874 2.84939C0.0524664 2.87411 0.0418965 2.89961 0.0330469 2.92572C0.0322657 2.92814 0.0311719 2.93049 0.0303906 2.93299C0.0215684 2.96073 0.0147026 2.98905 0.00984371 3.01775C0.00882808 3.02377 0.00796872 3.02978 0.00710934 3.03572C0.00261446 3.06528 0.000238641 3.09512 0 3.12502V9.37502C0 9.54078 0.065848 9.69975 0.183058 9.81696C0.300268 9.93417 0.45924 10 0.625 10C0.79076 10 0.949731 9.93417 1.06694 9.81696C1.18415 9.69975 1.25 9.54078 1.25 9.37502V3.9922L3.87383 4.86681C3.17826 5.98998 2.95569 7.34286 3.25479 8.62967C3.55388 9.91647 4.3503 11.0325 5.46992 11.7338C3.97902 12.2975 2.70681 13.3221 1.83828 14.6586C1.79233 14.7273 1.76048 14.8045 1.74456 14.8857C1.72865 14.9668 1.72899 15.0503 1.74557 15.1313C1.76215 15.2123 1.79463 15.2892 1.84115 15.3575C1.88766 15.4259 1.94727 15.4843 2.01653 15.5295C2.08579 15.5747 2.16332 15.6056 2.24463 15.6206C2.32594 15.6356 2.40942 15.6343 2.49022 15.6168C2.57103 15.5993 2.64755 15.5659 2.71537 15.5186C2.78319 15.4713 2.84095 15.411 2.88531 15.3413C3.45312 14.469 4.22974 13.7522 5.14471 13.256C6.05968 12.7599 7.08405 12.5 8.12488 12.5C9.16572 12.5 10.1901 12.7599 11.1051 13.256C12.02 13.7522 12.7966 14.469 13.3645 15.3413C13.4091 15.4105 13.4669 15.4702 13.5347 15.517C13.6025 15.5638 13.6788 15.5967 13.7593 15.6139C13.8399 15.6311 13.923 15.6322 14.004 15.6171C14.0849 15.6021 14.1621 15.5712 14.2311 15.5262C14.3001 15.4813 14.3595 15.4231 14.406 15.3551C14.4524 15.2871 14.4849 15.2106 14.5017 15.1299C14.5185 15.0493 14.5191 14.9662 14.5037 14.8853C14.4882 14.8044 14.4569 14.7274 14.4116 14.6586C13.543 13.3222 12.2709 12.2976 10.78 11.7338C11.8996 11.0326 12.6961 9.91653 12.9952 8.62971C13.2943 7.34289 13.0717 5.98999 12.3761 4.86681L15.8227 3.71799C15.9471 3.67652 16.0554 3.59694 16.1321 3.49051C16.2089 3.38409 16.2501 3.25622 16.2501 3.12502C16.2501 2.99382 16.2089 2.86595 16.1321 2.75952C16.0554 2.65309 15.9471 2.57351 15.8227 2.53205ZM11.875 7.50002C11.8752 8.09286 11.7347 8.6773 11.4653 9.20537C11.1958 9.73345 10.805 10.1901 10.3249 10.5379C9.84479 10.8857 9.28906 11.1147 8.70331 11.2061C8.11755 11.2975 7.51847 11.2488 6.95521 11.0639C6.39194 10.8789 5.88055 10.5631 5.46299 10.1422C5.04543 9.72138 4.7336 9.20753 4.55308 8.64284C4.37256 8.07815 4.32849 7.4787 4.4245 6.89368C4.52051 6.30866 4.75385 5.75474 5.10539 5.27736L7.92734 6.21799C8.05565 6.26072 8.19435 6.26072 8.32266 6.21799L11.1446 5.27736C11.6196 5.92103 11.8756 6.70007 11.875 7.50002ZM11.1486 3.95838C11.147 3.95892 11.1455 3.95931 11.1439 3.95994L8.125 4.96619L5.10602 3.95994C5.10445 3.95931 5.10289 3.95884 5.10133 3.95838L2.60148 3.12502L8.125 1.28384L13.6486 3.12502L11.1486 3.95838Z" fill="#2DA973"/>
</svg>
