<svg width="17" height="17" viewBox="0 0 17 17" fill="none" xmlns="http://www.w3.org/2000/svg">
<path d="M8.5 9.35C9.00856 9.34998 9.50551 9.50201 9.927 9.78658C10.3485 10.0712 10.6753 10.4752 10.8653 10.947C11.0554 11.4187 11.1001 11.9364 10.9937 12.4337C10.8872 12.931 10.6345 13.3851 10.268 13.7377L8.6445 15.3H11.05V17H5.95V15.5346L9.08905 12.5129C9.19034 12.4155 9.26591 12.2945 9.30901 12.1608C9.35211 12.0271 9.3614 11.8848 9.33603 11.7466C9.31067 11.6084 9.25146 11.4787 9.16368 11.369C9.0759 11.2593 8.9623 11.1731 8.83305 11.118C8.70379 11.063 8.5629 11.0408 8.42299 11.0536C8.28307 11.0663 8.1485 11.1135 8.03129 11.191C7.91409 11.2684 7.81792 11.3737 7.75138 11.4975C7.68484 11.6212 7.65001 11.7595 7.65 11.9H5.95C5.95 11.2237 6.21866 10.5751 6.69688 10.0969C7.1751 9.61866 7.8237 9.35 8.5 9.35ZM13.6 9.35V12.75H15.3V9.35H17V17H15.3V14.45H11.9V9.35H13.6ZM1.7 8.5C1.69895 9.51965 1.92765 10.5264 2.36912 11.4456C2.81058 12.3647 3.45346 13.1725 4.25 13.8091V15.8627C2.95733 15.1169 1.88393 14.0437 1.13784 12.7512C0.391757 11.4587 -0.000690798 9.9924 9.12803e-07 8.5H1.7ZM8.5 3.68939e-06C12.9072 3.68939e-06 16.5317 3.35495 16.9575 7.65H15.2473C15.0817 6.33678 14.5365 5.10043 13.6785 4.09254C12.8205 3.08466 11.687 2.34904 10.4171 1.9759C9.14717 1.60276 7.79595 1.60832 6.52912 1.99188C5.26229 2.37545 4.13492 3.12035 3.28525 4.13525L5.1 5.95H9.12803e-07V0.850003L2.07995 2.9291C2.87715 2.00871 3.86316 1.27072 4.97095 0.765303C6.07874 0.259881 7.28236 -0.00113187 8.5 3.68939e-06Z" fill="#2DA973"/>
</svg>
