<svg width="52" height="52" viewBox="0 0 52 52" fill="none" xmlns="http://www.w3.org/2000/svg">
<path d="M50 26H44.6667C41.7211 26 39.3333 28.3878 39.3333 31.3333V36.6667C39.3333 39.6122 41.7211 42 44.6667 42C47.6122 42 50 39.6122 50 36.6667V26ZM50 26C50 12.7452 39.2548 2 26 2C12.7452 2 2 12.7452 2 26M2 26V36.6667C2 39.6122 4.38781 42 7.33333 42C10.2789 42 12.6667 39.6122 12.6667 36.6667V31.3333C12.6667 28.3878 10.2789 26 7.33333 26H2Z" stroke="#024F3B" stroke-width="2.66667" stroke-linecap="square"/>
<path d="M49.9987 31.3335V42.0002C49.9987 47.3335 48.2209 50.0002 44.6654 50.0002C41.1098 50.0002 36.6654 50.0002 31.332 50.0002" stroke="#024F3B" stroke-width="2.66667" stroke-linecap="square"/>
</svg>
