<svg width="13" height="16" viewBox="0 0 13 16" fill="none" xmlns="http://www.w3.org/2000/svg">
<path fill-rule="evenodd" clip-rule="evenodd" d="M6.88237 8.28365C6.78078 8.18207 6.64301 8.125 6.49935 8.125C6.35569 8.125 6.21792 8.18207 6.11633 8.28365C6.01475 8.38523 5.95768 8.52301 5.95768 8.66667V11.9167C5.95768 12.0603 6.01475 12.1981 6.11633 12.2997C6.21792 12.4013 6.35569 12.4583 6.49935 12.4583C6.64301 12.4583 6.78078 12.4013 6.88237 12.2997C6.98395 12.1981 7.04102 12.0603 7.04102 11.9167V8.66667C7.04102 8.52301 6.98395 8.38523 6.88237 8.28365ZM9.74935 4.33333V5.41667H3.24935V4.33333C3.24935 3.47138 3.59176 2.64473 4.20125 2.03524C4.81075 1.42574 5.6374 1.08333 6.49935 1.08333C7.3613 1.08333 8.18795 1.42574 8.79745 2.03524C9.40694 2.64473 9.74935 3.47138 9.74935 4.33333ZM2.16602 5.41667V4.33333C2.16602 3.18406 2.62256 2.08186 3.43522 1.2692C4.24788 0.456546 5.35008 0 6.49935 0C7.64862 0 8.75082 0.456546 9.56348 1.2692C10.3761 2.08186 10.8327 3.18406 10.8327 4.33333V5.41667H11.375C11.806 5.41667 12.2193 5.58787 12.524 5.89262C12.8288 6.19736 13 6.61069 13 7.04167V13.5417C13 13.9726 12.8288 14.386 12.524 14.6907C12.2193 14.9955 11.806 15.1667 11.375 15.1667H1.625C1.19402 15.1667 0.780698 14.9955 0.475952 14.6907C0.171205 14.386 0 13.9726 0 13.5417V7.04167C0 6.61069 0.171205 6.19736 0.475952 5.89262C0.780698 5.58787 1.19402 5.41667 1.625 5.41667H2.16602ZM2.16602 6.5H10.8327L11.375 6.5C11.5187 6.5 11.6564 6.55707 11.758 6.65865C11.8596 6.76023 11.9167 6.89801 11.9167 7.04167V13.5417C11.9167 13.6853 11.8596 13.8231 11.758 13.9247C11.6564 14.0263 11.5187 14.0833 11.375 14.0833H1.625C1.48134 14.0833 1.34357 14.0263 1.24198 13.9247C1.1404 13.8231 1.08333 13.6853 1.08333 13.5417V7.04167C1.08333 6.89801 1.1404 6.76023 1.24198 6.65865C1.34357 6.55707 1.48134 6.5 1.625 6.5L2.16602 6.5Z" fill="#2DA973"/>
</svg>
