<svg width="34" height="29" viewBox="0 0 34 29" fill="none" xmlns="http://www.w3.org/2000/svg">
<path d="M24.2375 27.2017V24.4015C24.2375 22.9162 23.6475 21.4917 22.5972 20.4415C21.5469 19.3912 20.1224 18.8011 18.6371 18.8011H7.43633C5.95101 18.8011 4.52653 19.3912 3.47625 20.4415C2.42598 21.4917 1.83594 22.9162 1.83594 24.4015V27.2017" stroke="#2DA973" stroke-width="2.40017" stroke-linecap="round" stroke-linejoin="round"/>
<path d="M13.0379 13.2008C16.1309 13.2008 18.6383 10.6934 18.6383 7.60039C18.6383 4.50738 16.1309 2 13.0379 2C9.94488 2 7.4375 4.50738 7.4375 7.60039C7.4375 10.6934 9.94488 13.2008 13.0379 13.2008Z" stroke="#2DA973" stroke-width="2.40017" stroke-linecap="round" stroke-linejoin="round"/>
<path d="M32.6378 27.2016V24.4014C32.6369 23.1605 32.2239 21.9551 31.4636 20.9744C30.7034 19.9937 29.639 19.2932 28.4375 18.983" stroke="#2DA973" stroke-width="2.40017" stroke-linecap="round" stroke-linejoin="round"/>
<path d="M22.8379 2.18188C24.0426 2.49033 25.1103 3.19094 25.8728 4.17326C26.6353 5.15558 27.0492 6.36374 27.0492 7.60727C27.0492 8.85079 26.6353 10.0589 25.8728 11.0413C25.1103 12.0236 24.0426 12.7242 22.8379 13.0326" stroke="#2DA973" stroke-width="2.40017" stroke-linecap="round" stroke-linejoin="round"/>
</svg>
