<svg width="20" height="16" viewBox="0 0 20 16" fill="none" xmlns="http://www.w3.org/2000/svg">
<path fill-rule="evenodd" clip-rule="evenodd" d="M1 4.22273C1 2.44286 2.44286 1 4.22273 1H15.3909C17.1708 1 18.6136 2.44286 18.6136 4.22273V11.6682C18.6136 13.448 17.1708 14.8909 15.3909 14.8909H4.22273C2.44286 14.8909 1 13.448 1 11.6682V4.22273ZM4.22273 0C1.89058 0 0 1.89058 0 4.22273V11.6682C0 14.0003 1.89058 15.8909 4.22273 15.8909H15.3909C17.7231 15.8909 19.6136 14.0003 19.6136 11.6682V4.22273C19.6136 1.89058 17.7231 0 15.3909 0H4.22273ZM8.20256 4.7247C8.04809 4.63202 7.85572 4.62959 7.69896 4.71834C7.54221 4.8071 7.44531 4.97331 7.44531 5.15344V10.7375C7.44531 10.9177 7.54221 11.0839 7.69896 11.1726C7.85572 11.2614 8.04809 11.259 8.20256 11.1663L12.856 8.37423C13.0066 8.28387 13.0987 8.12112 13.0987 7.94549C13.0987 7.76986 13.0066 7.6071 12.856 7.51674L8.20256 4.7247ZM11.6269 7.94549L8.44531 9.85444V6.03654L11.6269 7.94549Z" fill="#A2A2A2"/>
</svg>
