<svg width="135" height="40" viewBox="0 0 135 40" fill="none" xmlns="http://www.w3.org/2000/svg">
<path d="M130.197 40H4.729C2.122 40 0 37.872 0 35.267V4.726C0 2.12 2.122 0 4.729 0H130.197C132.803 0 135 2.12 135 4.726V35.267C135 37.872 132.803 40 130.197 40Z" fill="#A6A6A6"/>
<path d="M134.033 35.2681C134.033 37.3841 132.319 39.0981 130.199 39.0981H4.72963C2.61063 39.0981 0.890625 37.3841 0.890625 35.2681V4.72514C0.890625 2.61014 2.61063 0.890137 4.72963 0.890137H130.198C132.319 0.890137 134.032 2.61014 134.032 4.72514L134.033 35.2681Z" fill="black"/>
<path d="M30.1291 19.7842C30.1001 16.5612 32.7681 14.9932 32.8901 14.9202C31.3791 12.7172 29.0371 12.4162 28.2141 12.3922C26.2471 12.1852 24.3391 13.5692 23.3371 13.5692C22.3151 13.5692 20.7721 12.4122 19.1091 12.4462C16.9691 12.4792 14.9671 13.7182 13.8691 15.6422C11.6031 19.5652 13.2931 25.3302 15.4641 28.5012C16.5501 30.0542 17.8191 31.7882 19.4801 31.7272C21.1051 31.6602 21.7121 30.6912 23.6731 30.6912C25.6161 30.6912 26.1861 31.7272 27.8801 31.6882C29.6241 31.6602 30.7221 30.1282 31.7701 28.5612C33.0251 26.7812 33.5291 25.0282 33.5491 24.9382C33.5081 24.9242 30.1621 23.6472 30.1291 19.7842Z" fill="white"/>
<path d="M26.9271 10.3058C27.8011 9.2128 28.3991 7.7258 28.2331 6.2168C26.9681 6.2728 25.3861 7.0918 24.4751 8.1608C23.6691 9.1028 22.9491 10.6468 23.1351 12.0988C24.5561 12.2048 26.0151 11.3818 26.9271 10.3058Z" fill="white"/>
<path d="M53.6452 31.5038H51.3742L50.1302 27.5948H45.8062L44.6212 31.5038H42.4102L46.6942 18.1958H49.3402L53.6452 31.5038ZM49.7552 25.9548L48.6302 22.4798C48.5112 22.1248 48.2882 21.2888 47.9592 19.9728H47.9192C47.7882 20.5388 47.5772 21.3748 47.2872 22.4798L46.1822 25.9548H49.7552Z" fill="white"/>
<path d="M64.6629 26.5879C64.6629 28.2199 64.2219 29.5099 63.3399 30.4569C62.5499 31.2999 61.5689 31.7209 60.3979 31.7209C59.1339 31.7209 58.2259 31.2669 57.6729 30.3589H57.6329V35.4139H55.5009V25.0669C55.5009 24.0409 55.4739 22.9879 55.4219 21.9079H57.2969L57.4159 23.4289H57.4559C58.1669 22.2829 59.2459 21.7109 60.6939 21.7109C61.8259 21.7109 62.7709 22.1579 63.5269 23.0529C64.2849 23.9489 64.6629 25.1269 64.6629 26.5879ZM62.4909 26.6659C62.4909 25.7319 62.2809 24.9619 61.8589 24.3559C61.3979 23.7239 60.7789 23.4079 60.0029 23.4079C59.4769 23.4079 58.9989 23.5839 58.5719 23.9309C58.1439 24.2809 57.8639 24.7379 57.7329 25.3039C57.6669 25.5679 57.6339 25.7839 57.6339 25.9539V27.5539C57.6339 28.2519 57.8479 28.8409 58.2759 29.3219C58.7039 29.8029 59.2599 30.0429 59.9439 30.0429C60.7469 30.0429 61.3719 29.7329 61.8189 29.1149C62.2669 28.4959 62.4909 27.6799 62.4909 26.6659Z" fill="white"/>
<path d="M75.699 26.5879C75.699 28.2199 75.258 29.5099 74.375 30.4569C73.586 31.2999 72.605 31.7209 71.434 31.7209C70.17 31.7209 69.262 31.2669 68.71 30.3589H68.67V35.4139H66.538V25.0669C66.538 24.0409 66.511 22.9879 66.459 21.9079H68.334L68.453 23.4289H68.493C69.203 22.2829 70.282 21.7109 71.731 21.7109C72.862 21.7109 73.807 22.1579 74.565 23.0529C75.32 23.9489 75.699 25.1269 75.699 26.5879ZM73.527 26.6659C73.527 25.7319 73.316 24.9619 72.894 24.3559C72.433 23.7239 71.816 23.4079 71.039 23.4079C70.512 23.4079 70.035 23.5839 69.607 23.9309C69.179 24.2809 68.9 24.7379 68.769 25.3039C68.704 25.5679 68.67 25.7839 68.67 25.9539V27.5539C68.67 28.2519 68.884 28.8409 69.31 29.3219C69.738 29.8019 70.294 30.0429 70.98 30.0429C71.783 30.0429 72.408 29.7329 72.855 29.1149C73.303 28.4959 73.527 27.6799 73.527 26.6659Z" fill="white"/>
<path d="M88.0392 27.772C88.0392 28.904 87.6462 29.825 86.8572 30.536C85.9902 31.313 84.7832 31.701 83.2322 31.701C81.8002 31.701 80.6522 31.425 79.7832 30.872L80.2772 29.095C81.2132 29.661 82.2402 29.945 83.3592 29.945C84.1622 29.945 84.7872 29.763 85.2362 29.401C85.6832 29.039 85.9062 28.553 85.9062 27.947C85.9062 27.407 85.7222 26.952 85.3532 26.583C84.9862 26.214 84.3732 25.871 83.5172 25.554C81.1872 24.685 80.0232 23.412 80.0232 21.738C80.0232 20.644 80.4312 19.747 81.2482 19.049C82.0622 18.35 83.1482 18.001 84.5062 18.001C85.7172 18.001 86.7232 18.212 87.5262 18.633L86.9932 20.371C86.2432 19.963 85.3952 19.759 84.4462 19.759C83.6962 19.759 83.1102 19.944 82.6902 20.312C82.3352 20.641 82.1572 21.042 82.1572 21.517C82.1572 22.043 82.3602 22.478 82.7682 22.82C83.1232 23.136 83.7682 23.478 84.7042 23.847C85.8492 24.308 86.6902 24.847 87.2312 25.465C87.7702 26.081 88.0392 26.852 88.0392 27.772Z" fill="white"/>
<path d="M95.0881 23.5081H92.7381V28.1671C92.7381 29.3521 93.1521 29.9441 93.9821 29.9441C94.3631 29.9441 94.6791 29.9111 94.9291 29.8451L94.9881 31.4641C94.5681 31.6211 94.0151 31.7001 93.3301 31.7001C92.4881 31.7001 91.8301 31.4431 91.3551 30.9301C90.8821 30.4161 90.6441 29.5541 90.6441 28.3431V23.5061H89.2441V21.9061H90.6441V20.1491L92.7381 19.5171V21.9061H95.0881V23.5081Z" fill="white"/>
<path d="M105.692 26.6269C105.692 28.1019 105.27 29.3129 104.428 30.2599C103.545 31.2349 102.373 31.7209 100.912 31.7209C99.504 31.7209 98.383 31.2539 97.547 30.3199C96.711 29.3859 96.293 28.2069 96.293 26.7859C96.293 25.2989 96.723 24.0809 97.586 23.1339C98.447 22.1859 99.609 21.7119 101.07 21.7119C102.478 21.7119 103.611 22.1789 104.466 23.1139C105.284 24.0209 105.692 25.1919 105.692 26.6269ZM103.48 26.6959C103.48 25.8109 103.291 25.0519 102.908 24.4189C102.461 23.6529 101.822 23.2709 100.994 23.2709C100.137 23.2709 99.486 23.6539 99.039 24.4189C98.656 25.0529 98.467 25.8239 98.467 26.7359C98.467 27.6209 98.656 28.3799 99.039 29.0119C99.5 29.7779 100.144 30.1599 100.975 30.1599C101.789 30.1599 102.428 29.7699 102.889 28.9919C103.282 28.3469 103.48 27.5799 103.48 26.6959Z" fill="white"/>
<path d="M112.62 23.7829C112.409 23.7439 112.184 23.7239 111.948 23.7239C111.198 23.7239 110.618 24.0069 110.21 24.5739C109.855 25.0739 109.677 25.7059 109.677 26.4689V31.5039H107.546L107.566 24.9299C107.566 23.8239 107.539 22.8169 107.486 21.9089H109.343L109.421 23.7449H109.48C109.705 23.1139 110.06 22.6059 110.546 22.2249C111.021 21.8819 111.534 21.7109 112.087 21.7109C112.284 21.7109 112.462 21.7249 112.62 21.7499V23.7829Z" fill="white"/>
<path d="M122.157 26.2519C122.157 26.6339 122.132 26.9559 122.079 27.2189H115.683C115.708 28.1669 116.017 28.8919 116.611 29.3919C117.15 29.8389 117.847 30.0629 118.703 30.0629C119.65 30.0629 120.514 29.9119 121.291 29.6089L121.625 31.0889C120.717 31.4849 119.645 31.6819 118.408 31.6819C116.92 31.6819 115.752 31.2439 114.902 30.3689C114.054 29.4939 113.629 28.3189 113.629 26.8449C113.629 25.3979 114.024 24.1929 114.815 23.2319C115.643 22.2059 116.762 21.6929 118.17 21.6929C119.553 21.6929 120.6 22.2059 121.311 23.2319C121.874 24.0469 122.157 25.0549 122.157 26.2519ZM120.124 25.6989C120.138 25.0669 119.999 24.5209 119.71 24.0599C119.341 23.4669 118.774 23.1709 118.011 23.1709C117.314 23.1709 116.747 23.4599 116.314 24.0399C115.959 24.5009 115.748 25.0539 115.683 25.6979H120.124V25.6989Z" fill="white"/>
<path d="M49.0498 10.0092C49.0498 11.1862 48.6968 12.0722 47.9918 12.6672C47.3388 13.2162 46.4108 13.4912 45.2088 13.4912C44.6128 13.4912 44.1028 13.4652 43.6758 13.4132V6.98219C44.2328 6.89219 44.8328 6.84619 45.4808 6.84619C46.6258 6.84619 47.4888 7.09519 48.0708 7.59319C48.7228 8.15619 49.0498 8.96119 49.0498 10.0092ZM47.9448 10.0382C47.9448 9.27519 47.7428 8.69019 47.3388 8.28219C46.9348 7.87519 46.3448 7.67119 45.5678 7.67119C45.2378 7.67119 44.9568 7.69319 44.7238 7.73919V12.6282C44.8528 12.6482 45.0888 12.6572 45.4318 12.6572C46.2338 12.6572 46.8528 12.4342 47.2888 11.9882C47.7248 11.5422 47.9448 10.8922 47.9448 10.0382Z" fill="white"/>
<path d="M54.91 11.037C54.91 11.762 54.703 12.356 54.289 12.822C53.855 13.301 53.28 13.54 52.562 13.54C51.87 13.54 51.319 13.311 50.908 12.851C50.498 12.392 50.293 11.813 50.293 11.115C50.293 10.385 50.504 9.78605 50.928 9.32105C51.352 8.85605 51.922 8.62305 52.64 8.62305C53.332 8.62305 53.888 8.85205 54.309 9.31105C54.709 9.75705 54.91 10.333 54.91 11.037ZM53.823 11.071C53.823 10.636 53.729 10.263 53.542 9.95205C53.322 9.57605 53.009 9.38805 52.602 9.38805C52.181 9.38805 51.861 9.57605 51.641 9.95205C51.453 10.263 51.36 10.642 51.36 11.09C51.36 11.525 51.454 11.898 51.641 12.209C51.868 12.585 52.184 12.773 52.592 12.773C52.992 12.773 53.306 12.582 53.532 12.199C53.726 11.882 53.823 11.506 53.823 11.071Z" fill="white"/>
<path d="M62.7655 8.71875L61.2905 13.4327H60.3305L59.7195 11.3857C59.5645 10.8747 59.4385 10.3668 59.3405 9.86275H59.3215C59.2305 10.3808 59.1045 10.8877 58.9425 11.3857L58.2935 13.4327H57.3225L55.9355 8.71875H57.0125L57.5455 10.9598C57.6745 11.4898 57.7805 11.9947 57.8655 12.4727H57.8845C57.9625 12.0787 58.0915 11.5768 58.2735 10.9698L58.9425 8.71975H59.7965L60.4375 10.9218C60.5925 11.4588 60.7185 11.9758 60.8155 12.4738H60.8445C60.9155 11.9887 61.0225 11.4718 61.1645 10.9218L61.7365 8.71975H62.7655V8.71875Z" fill="white"/>
<path d="M68.1984 13.4331H67.1504V10.7331C67.1504 9.90112 66.8344 9.48512 66.2004 9.48512C65.8894 9.48512 65.6384 9.59912 65.4434 9.82812C65.2504 10.0571 65.1524 10.3271 65.1524 10.6361V13.4321H64.1044V10.0661C64.1044 9.65212 64.0914 9.20312 64.0664 8.71712H64.9874L65.0364 9.45412H65.0654C65.1874 9.22512 65.3694 9.03612 65.6084 8.88512C65.8924 8.70912 66.2104 8.62012 66.5584 8.62012C66.9984 8.62012 67.3644 8.76212 67.6554 9.04712C68.0174 9.39612 68.1984 9.91712 68.1984 10.6091V13.4331Z" fill="white"/>
<path d="M71.088 13.4332H70.041V6.55615H71.088V13.4332Z" fill="white"/>
<path d="M77.2576 11.037C77.2576 11.762 77.0506 12.356 76.6366 12.822C76.2026 13.301 75.6266 13.54 74.9096 13.54C74.2166 13.54 73.6656 13.311 73.2556 12.851C72.8456 12.392 72.6406 11.813 72.6406 11.115C72.6406 10.385 72.8516 9.78605 73.2756 9.32105C73.6996 8.85605 74.2696 8.62305 74.9866 8.62305C75.6796 8.62305 76.2346 8.85205 76.6566 9.31105C77.0566 9.75705 77.2576 10.333 77.2576 11.037ZM76.1696 11.071C76.1696 10.636 76.0756 10.263 75.8886 9.95205C75.6696 9.57605 75.3556 9.38805 74.9496 9.38805C74.5276 9.38805 74.2076 9.57605 73.9886 9.95205C73.8006 10.263 73.7076 10.642 73.7076 11.09C73.7076 11.525 73.8016 11.898 73.9886 12.209C74.2156 12.585 74.5316 12.773 74.9396 12.773C75.3396 12.773 75.6526 12.582 75.8786 12.199C76.0736 11.882 76.1696 11.506 76.1696 11.071Z" fill="white"/>
<path d="M82.3309 13.433H81.3899L81.3119 12.89H81.2829C80.9609 13.323 80.5019 13.54 79.9059 13.54C79.4609 13.54 79.1009 13.397 78.8299 13.113C78.5839 12.855 78.4609 12.534 78.4609 12.153C78.4609 11.577 78.7009 11.138 79.1839 10.834C79.6659 10.53 80.3439 10.381 81.2169 10.388V10.3C81.2169 9.67905 80.8909 9.36905 80.2379 9.36905C79.7729 9.36905 79.3629 9.48605 79.0089 9.71805L78.7959 9.03005C79.2339 8.75905 79.7749 8.62305 80.4129 8.62305C81.6449 8.62305 82.2629 9.27305 82.2629 10.573V12.309C82.2629 12.78 82.2859 13.155 82.3309 13.433ZM81.2429 11.813V11.086C80.0869 11.066 79.5089 11.383 79.5089 12.036C79.5089 12.282 79.5749 12.466 79.7099 12.589C79.8449 12.712 80.0169 12.773 80.2219 12.773C80.4519 12.773 80.6669 12.7 80.8629 12.555C81.0599 12.409 81.1809 12.224 81.2259 11.997C81.2369 11.946 81.2429 11.884 81.2429 11.813Z" fill="white"/>
<path d="M88.2852 13.4332H87.3552L87.3062 12.6762H87.2772C86.9802 13.2522 86.4742 13.5402 85.7632 13.5402C85.1952 13.5402 84.7222 13.3172 84.3472 12.8712C83.9722 12.4252 83.7852 11.8462 83.7852 11.1352C83.7852 10.3722 83.9882 9.75415 84.3962 9.28215C84.7912 8.84215 85.2752 8.62215 85.8512 8.62215C86.4842 8.62215 86.9272 8.83515 87.1792 9.26215H87.1992V6.55615H88.2482V12.1632C88.2482 12.6222 88.2602 13.0452 88.2852 13.4332ZM87.1992 11.4452V10.6592C87.1992 10.5232 87.1892 10.4132 87.1702 10.3292C87.1112 10.0772 86.9842 9.86515 86.7912 9.69415C86.5962 9.52315 86.3611 9.43715 86.0901 9.43715C85.6991 9.43715 85.3932 9.59215 85.1682 9.90315C84.9452 10.2142 84.8322 10.6112 84.8322 11.0962C84.8322 11.5622 84.9392 11.9402 85.1542 12.2312C85.3812 12.5412 85.6872 12.6962 86.0702 12.6962C86.4142 12.6962 86.6892 12.5672 86.8982 12.3082C87.1002 12.0692 87.1992 11.7812 87.1992 11.4452Z" fill="white"/>
<path d="M97.2479 11.037C97.2479 11.762 97.0409 12.356 96.6269 12.822C96.1929 13.301 95.6189 13.54 94.8999 13.54C94.2089 13.54 93.6579 13.311 93.2459 12.851C92.8359 12.392 92.6309 11.813 92.6309 11.115C92.6309 10.385 92.8419 9.78605 93.2659 9.32105C93.6899 8.85605 94.2599 8.62305 94.9789 8.62305C95.6699 8.62305 96.2269 8.85205 96.6469 9.31105C97.0469 9.75705 97.2479 10.333 97.2479 11.037ZM96.1619 11.071C96.1619 10.636 96.0679 10.263 95.8809 9.95205C95.6599 9.57605 95.3479 9.38805 94.9399 9.38805C94.5199 9.38805 94.1999 9.57605 93.9789 9.95205C93.7909 10.263 93.6979 10.642 93.6979 11.09C93.6979 11.525 93.7919 11.898 93.9789 12.209C94.2059 12.585 94.5219 12.773 94.9299 12.773C95.3299 12.773 95.6449 12.582 95.8709 12.199C96.0639 11.882 96.1619 11.506 96.1619 11.071Z" fill="white"/>
<path d="M102.883 13.4331H101.836V10.7331C101.836 9.90112 101.52 9.48512 100.885 9.48512C100.574 9.48512 100.323 9.59912 100.129 9.82812C99.935 10.0571 99.838 10.3271 99.838 10.6361V13.4321H98.789V10.0661C98.789 9.65212 98.777 9.20312 98.752 8.71712H99.672L99.721 9.45412H99.75C99.873 9.22512 100.055 9.03612 100.293 8.88512C100.578 8.70912 100.895 8.62012 101.244 8.62012C101.683 8.62012 102.049 8.76212 102.34 9.04712C102.703 9.39612 102.883 9.91712 102.883 10.6091V13.4331Z" fill="white"/>
<path d="M109.935 9.50392H108.781V11.7939C108.781 12.3759 108.986 12.6669 109.392 12.6669C109.58 12.6669 109.736 12.6509 109.859 12.6179L109.886 13.4129C109.679 13.4909 109.407 13.5299 109.072 13.5299C108.658 13.5299 108.336 13.4039 108.103 13.1519C107.869 12.8999 107.753 12.4759 107.753 11.8809V9.50392H107.064V8.71892H107.753V7.85492L108.78 7.54492V8.71792H109.934V9.50392H109.935Z" fill="white"/>
<path d="M115.485 13.4332H114.436V10.7532C114.436 9.90815 114.12 9.48515 113.487 9.48515C113.001 9.48515 112.669 9.73015 112.487 10.2202C112.456 10.3232 112.438 10.4492 112.438 10.5972V13.4322H111.391V6.55615H112.438V9.39715H112.458C112.788 8.88015 113.261 8.62215 113.874 8.62215C114.308 8.62215 114.667 8.76415 114.952 9.04915C115.307 9.40415 115.485 9.93215 115.485 10.6302V13.4332Z" fill="white"/>
<path d="M121.207 10.8533C121.207 11.0413 121.193 11.1993 121.168 11.3283H118.025C118.039 11.7943 118.189 12.1493 118.48 12.3953C118.746 12.6153 119.089 12.7253 119.509 12.7253C119.974 12.7253 120.398 12.6513 120.78 12.5023L120.944 13.2303C120.497 13.4243 119.971 13.5213 119.362 13.5213C118.632 13.5213 118.057 13.3063 117.641 12.8763C117.223 12.4463 117.016 11.8693 117.016 11.1453C117.016 10.4343 117.209 9.84226 117.598 9.37026C118.004 8.86626 118.553 8.61426 119.246 8.61426C119.924 8.61426 120.439 8.86626 120.787 9.37026C121.068 9.77026 121.207 10.2653 121.207 10.8533ZM120.207 10.5823C120.215 10.2713 120.146 10.0033 120.004 9.77726C119.822 9.48626 119.545 9.34026 119.17 9.34026C118.828 9.34026 118.549 9.48226 118.336 9.76726C118.162 9.99426 118.059 10.2653 118.025 10.5823H120.207Z" fill="white"/>
</svg>
